<?xml version="1.0" encoding="UTF-8" standalone="no"?>
<!-- Created with Inkscape (http://www.inkscape.org/) -->
<svg
   xmlns:svg="http://www.w3.org/2000/svg"
   xmlns="http://www.w3.org/2000/svg"
   version="1.0"
   width="658.23999"
   height="516.38599"
   id="svg1354">
  <defs
     id="defs1357" />
  <path
     d="M 577.44443,257.29047 L 420.46263,462.81566 L 83.006798,257.40682"
     style="fill:none;fill-opacity:0.75;fill-rule:evenodd;stroke:#0f2cec;stroke-width:2.94965458;stroke-linecap:butt;stroke-linejoin:miter;stroke-miterlimit:4;stroke-dasharray:none;stroke-opacity:1"
     id="path6665" />
  <path
     d="M 22.354539,257.41912 L 642.33377,257.41912"
     style="fill:none;fill-opacity:0.75;fill-rule:evenodd;stroke:#000000;stroke-width:1.4740541px;stroke-linecap:butt;stroke-linejoin:miter;stroke-opacity:1"
     id="path3129" />
  <path
     d="M 332.11657,473.25267 C 332.11657,328.09733 331.94908,185.1409 331.94908,39.985569"
     style="fill:none;fill-opacity:0.75;fill-rule:evenodd;stroke:#000000;stroke-width:1.47350216px;stroke-linecap:butt;stroke-linejoin:miter;stroke-opacity:1"
     id="path3131" />
  <path
     d="M 331.94908,40.941072 C 331.94908,40.941072 328.70758,37.779112 321.57427,54.349409 C 315.82599,67.702359 322.51877,122.95968 315.51891,136.53857 C 308.667,149.83042 298.56868,146.91961 298.56868,146.91961"
     style="fill:none;fill-opacity:0.75;fill-rule:evenodd;stroke:#000000;stroke-width:1.47482741px;stroke-linecap:butt;stroke-linejoin:miter;stroke-opacity:1"
     id="path3138" />
  <path
     d="M 332.28407,256.78119 C 332.28407,256.78119 326.44397,260.13653 320.92387,245.52084 C 316.91511,234.90654 322.70667,172.25549 315.84144,158.17092 C 309.12135,144.38408 298.88232,147.24621 298.88232,147.24621"
     style="fill:none;fill-opacity:0.75;fill-rule:evenodd;stroke:#000000;stroke-width:1.4875195px;stroke-linecap:butt;stroke-linejoin:miter;stroke-opacity:1"
     id="path3140" />
  <g
     transform="matrix(1.293887,0,0,1.57296,-82.63883,-551.3013)"
     id="g3149">
    <path
       d="M 320.67793,514.13923 C 322.79104,512.78123 320.54958,510.29737 334.28159,507.35099 C 345.77987,504.88388 415.76872,508.41149 429.47778,503.76096 C 443.26629,499.08348 441.08221,494.63953 441.04494,492.80072"
       style="fill:none;fill-opacity:0.75;fill-rule:evenodd;stroke:#000000;stroke-width:1.22275186px;stroke-linecap:butt;stroke-linejoin:miter;stroke-opacity:1"
       id="path3144" />
    <path
       d="M 560.03354,514.13923 C 560.72584,514.13923 556.22513,510.44764 550.68227,508.9001 C 540.69155,506.11073 531.28432,506.47187 520.82875,506.16723 C 500.22783,505.74046 481.0779,506.14289 460.56219,505.02746 C 454.45898,504.13746 445.90947,502.29889 441.82628,497.27446 C 440.91606,495.93722 441.10654,494.35717 441.08918,492.60117"
       style="fill:none;fill-opacity:0.75;fill-rule:evenodd;stroke:#000000;stroke-width:1.2298727px;stroke-linecap:butt;stroke-linejoin:miter;stroke-opacity:1"
       id="path3146" />
  </g>
  <g
     transform="matrix(1.042062,0,0,1.645242,-263.7341,-564.7323)"
     id="g3153">
    <path
       d="M 332.95425,499.71455 C 332.93729,498.19075 334.53116,496.04697 338.90509,494.41901 C 341.75205,493.35937 345.82253,492.86942 351.23662,491.70775 C 362.7349,489.24064 433.19955,492.03712 446.90861,487.38659 C 460.69712,482.70911 458.51304,478.26516 458.47577,476.42635"
       style="fill:none;fill-opacity:0.75;fill-rule:evenodd;stroke:#000000;stroke-width:1.22142529px;stroke-linecap:butt;stroke-linejoin:miter;stroke-opacity:1"
       id="path3155" />
    <path
       d="M 571.96029,499.71455 C 572.00965,499.71455 570.96388,495.02987 566.54616,493.19593 C 557.49779,489.43966 548.87375,490.82863 538.41818,490.52399 C 517.81726,490.09722 498.50873,489.76852 477.99302,488.65309 C 471.88981,487.76309 463.23667,485.97011 459.25711,480.90009 C 458.24326,479.60844 458.53737,477.9828 458.52001,476.2268"
       style="fill:none;fill-opacity:0.75;fill-rule:evenodd;stroke:#000000;stroke-width:1.22853839px;stroke-linecap:butt;stroke-linejoin:miter;stroke-opacity:1"
       id="path3157" />
  </g>
  <path
     d="M 106.62592 230.78616 A 4.2443466 3.6049848 0 1 1  98.137222,230.78616 A 4.2443466 3.6049848 0 1 1  106.62592 230.78616 z"
     transform="matrix(1.296699,0,0,1.57296,-48.91713,-105.5983)"
     style="fill:#102feb;fill-opacity:0.94499972;fill-rule:nonzero;stroke:none;stroke-width:3;stroke-linejoin:round;stroke-miterlimit:4;stroke-dasharray:none;stroke-opacity:1"
     id="path6661" />
  <path
     d="M 106.71725 230.78616 A 4.3356838 3.6049848 0 1 1  98.045885,230.78616 A 4.3356838 3.6049848 0 1 1  106.71725 230.78616 z"
     transform="matrix(1.296699,0,0,1.57296,445.3181,-105.9164)"
     style="fill:#102feb;fill-opacity:0.94499972;fill-rule:nonzero;stroke:none;stroke-width:3;stroke-linejoin:round;stroke-miterlimit:4;stroke-dasharray:none;stroke-opacity:1"
     id="path6663" />
  <path
     d="M 206.84157,210.57417 C 205.26375,210.57417 204.03754,210.03653 203.16295,208.96125 C 202.29427,207.87884 201.85991,206.34479 201.85991,204.35912 C 201.85991,202.40216 202.28244,200.84661 203.12749,199.69248 C 203.97254,198.5312 205.07761,197.95055 206.44268,197.95054 C 207.05727,197.95055 207.60093,198.05808 208.0737,198.27312 C 208.54643,198.4882 208.96011,198.8251 209.31468,199.28387 C 209.66923,199.74266 209.94106,200.30538 210.13017,200.97204 C 210.31927,201.63154 210.41382,202.44158 210.41382,203.40213 L 210.41382,204.49891 L 208.74371,204.49891 L 203.55298,204.49891 C 203.55298,205.89677 203.84253,206.96485 204.42166,207.70321 C 205.00078,208.44155 205.80152,208.81072 206.82385,208.81072 C 207.19023,208.81072 207.54774,208.76054 207.89641,208.66019 C 208.25097,208.55983 208.57007,208.4308 208.85374,208.27309 C 209.15512,208.10823 209.40922,207.95052 209.61605,207.79997 C 209.82288,207.64226 209.99425,207.49532 210.13017,207.35912 L 210.22768,207.35912 L 210.22768,209.56341 C 210.03266,209.65659 209.79037,209.77489 209.50082,209.91825 C 209.21125,210.05445 208.95124,210.16197 208.72077,210.24082 C 208.39574,210.34835 208.10028,210.4308 207.83436,210.48814 C 207.57434,210.54549 207.24341,210.57417 206.84157,210.57417 M 208.79169,202.95054 C 208.77986,202.40574 208.72667,201.9362 208.63213,201.54194 C 208.53758,201.14767 208.40166,200.81435 208.22438,200.54194 C 208.02936,200.24087 207.77822,200.01148 207.47092,199.85377 C 207.16955,199.69607 206.79429,199.61721 206.34518,199.61719 C 205.90197,199.61721 205.52376,199.69966 205.21057,199.86452 C 204.90328,200.02223 204.62258,200.2552 204.36848,200.56344 C 204.12028,200.87885 203.93117,201.23012 203.80118,201.6172 C 203.67116,201.99713 203.58843,202.44158 203.55298,202.95054 L 208.79169,202.95054 M 215.18274,205.25778 L 213.06421,205.25778 L 213.06421,202.19328 L 215.18274,202.19328 L 215.18274,205.25778 M 224.06462,207.33762 L 224.06462,204.00429 C 223.66868,204.04732 223.16639,204.10824 222.55772,204.18708 C 221.95495,204.25878 221.46743,204.36273 221.09513,204.49891 C 220.65192,204.66378 220.28554,204.91828 219.99597,205.26235 C 219.70641,205.59927 219.56163,206.07239 219.56163,206.68171 C 219.56163,207.36987 219.72119,207.88958 220.04029,208.24084 C 220.3594,208.5921 220.82625,208.76772 221.44083,208.76772 C 221.96677,208.76772 222.44248,208.63151 222.86797,208.35911 C 223.29344,208.07955 223.69232,207.73905 224.06462,207.33762 M 224.06462,209.01502 C 223.9287,209.13689 223.74551,209.30892 223.51504,209.53116 C 223.29048,209.74621 223.07183,209.91825 222.8591,210.04728 C 222.56362,210.23365 222.27701,210.37703 221.99927,210.47738 C 221.72744,210.57774 221.34332,210.62792 220.84693,210.62792 C 220.43918,210.62792 220.05212,210.53473 219.68574,210.34835 C 219.31934,210.16197 218.99728,209.90033 218.71954,209.56341 C 218.45361,209.23366 218.24088,208.82865 218.08132,208.34837 C 217.92176,207.86091 217.84199,207.34837 217.84199,206.81074 C 217.84199,205.97919 217.98676,205.27311 218.27633,204.69246 C 218.56589,204.10465 219.02388,203.6387 219.65027,203.29462 C 220.20575,202.98639 220.8617,202.77492 221.61812,202.66022 C 222.37452,202.53836 223.19001,202.44874 224.06462,202.3914 L 224.06462,202.00429 C 224.06461,201.53119 224.00552,201.15126 223.88734,200.86451 C 223.76915,200.57061 223.60367,200.34482 223.39095,200.1871 C 223.1782,200.02223 222.91819,199.91471 222.61089,199.86452 C 222.3036,199.80718 221.98746,199.7785 221.66244,199.77849 C 221.27832,199.7785 220.82625,199.85018 220.30622,199.99355 C 219.78619,200.12976 219.26616,200.33047 218.74614,200.59571 L 218.64862,200.59571 L 218.64862,198.54194 C 218.95592,198.43443 219.39617,198.31614 219.96939,198.18711 C 220.5426,198.05808 221.1099,197.99357 221.67131,197.99356 C 222.35088,197.99357 222.9241,198.05808 223.39095,198.18711 C 223.85779,198.31614 224.27736,198.54913 224.64966,198.88602 C 225.01012,199.21578 225.27901,199.64231 225.45629,200.16559 C 225.63356,200.6889 225.72221,201.32688 225.72222,202.07956 L 225.72222,210.29459 L 224.06462,210.29459 L 224.06462,209.01502"
     style="font-size:14px;font-style:normal;font-variant:normal;font-weight:normal;font-stretch:normal;text-align:start;line-height:100%;writing-mode:lr-tb;text-anchor:start;fill:#000000;fill-opacity:1;stroke:none;stroke-width:1px;stroke-linecap:butt;stroke-linejoin:miter;stroke-opacity:1;font-family:Tahoma"
     id="text7548" />
  <path
     d="M 289.60099,147.46424 C 289.60099,146.03055 289.42075,144.94453 289.06028,144.20618 C 288.69979,143.46067 288.12068,143.08792 287.32291,143.0879 C 286.86787,143.08792 286.40693,143.21695 285.9401,143.475 C 285.47916,143.73307 285.05959,144.05924 284.68139,144.45349 L 284.68139,151.33518 C 285.10095,151.58609 285.47325,151.7653 285.79826,151.87282 C 286.12328,151.97317 286.48081,152.02335 286.87083,152.02335 C 287.72179,152.02335 288.38955,151.65777 288.87414,150.92659 C 289.3587,150.19542 289.60099,149.04129 289.60099,147.46424 M 291.32063,147.30295 C 291.32063,149.2671 290.92765,150.84774 290.1417,152.04485 C 289.35574,153.24199 288.37182,153.84056 287.18994,153.84056 C 286.65218,153.84056 286.19124,153.75813 285.80713,153.59325 C 285.42892,153.43554 285.05367,153.22048 284.68139,152.94809 L 284.57502,153.50722 L 283.01492,153.50722 L 283.01492,136.77609 L 284.68139,136.77609 L 284.68139,142.75456 C 285.10095,142.29581 285.55597,141.91588 286.04646,141.6148 C 286.53694,141.31373 287.09243,141.16318 287.71293,141.16318 C 288.8298,141.16318 289.71031,141.708 290.35445,142.79758 C 290.99856,143.88004 291.32063,145.38182 291.32063,147.30295"
     style="font-size:14px;font-style:normal;font-variant:normal;font-weight:normal;font-stretch:normal;text-indent:0;text-align:start;text-decoration:none;line-height:100%;letter-spacing:normal;word-spacing:normal;text-transform:none;direction:ltr;block-progression:tb;writing-mode:lr-tb;text-anchor:start;color:#000000;fill:#000000;fill-opacity:1;fill-rule:nonzero;stroke:none;stroke-width:1px;stroke-linecap:butt;stroke-linejoin:miter;marker:none;marker-start:none;marker-mid:none;marker-end:none;stroke-miterlimit:4;stroke-dashoffset:0;stroke-opacity:1;visibility:visible;display:inline;overflow:visible;font-family:Tahoma"
     id="text7552" />
  <path
     d="M 95.59673,279.15342 L 89.45388,279.15342 L 89.45388,283.66953 L 95.33967,283.66953 L 95.33967,285.562 L 89.45388,285.562 L 89.45388,293.27166 L 87.69877,293.27166 L 87.69877,277.26094 L 95.59673,277.26094 L 95.59673,279.15342 M 104.26588,293.27166 L 97.8305,293.27166 L 97.8305,291.63725 L 100.22382,291.63725 L 100.22382,280.90611 L 97.8305,280.90611 L 97.8305,279.44374 C 98.73464,279.44376 99.39944,279.28964 99.82493,278.98137 C 100.25631,278.66597 100.4986,278.07459 100.55179,277.20719 L 101.92574,277.20719 L 101.92574,291.63725 L 104.26588,291.63725 L 104.26588,293.27166"
     style="font-size:14px;font-style:normal;font-variant:normal;font-weight:normal;font-stretch:normal;text-indent:0;text-align:start;text-decoration:none;line-height:100%;letter-spacing:normal;word-spacing:normal;text-transform:none;direction:ltr;block-progression:tb;writing-mode:lr-tb;text-anchor:start;color:#000000;fill:#000000;fill-opacity:1;fill-rule:nonzero;stroke:none;stroke-width:1px;stroke-linecap:butt;stroke-linejoin:miter;marker:none;marker-start:none;marker-mid:none;marker-end:none;stroke-miterlimit:4;stroke-dashoffset:0;stroke-opacity:1;visibility:visible;display:inline;overflow:visible;font-family:Tahoma"
     id="text7567" />
  <path
     d="M 0,265.60508 L 4.44981,249.59437 L 6.61266,249.59437 L 11.06246,265.60508 L 9.20985,265.60508 L 8.01319,261.13197 L 2.96949,261.13197 L 1.77283,265.60508 L 0,265.60508 M 7.52567,259.31478 L 5.48691,251.76641 L 3.45702,259.31478 L 7.52567,259.31478"
     style="font-size:14px;font-style:normal;font-variant:normal;font-weight:normal;font-stretch:normal;text-indent:0;text-align:start;text-decoration:none;line-height:100%;letter-spacing:normal;word-spacing:normal;text-transform:none;direction:ltr;block-progression:tb;writing-mode:lr-tb;text-anchor:start;color:#000000;fill:#000000;fill-opacity:1;fill-rule:nonzero;stroke:none;stroke-width:1px;stroke-linecap:butt;stroke-linejoin:miter;marker:none;marker-start:none;marker-mid:none;marker-end:none;stroke-miterlimit:4;stroke-dashoffset:0;stroke-opacity:1;visibility:visible;display:inline;overflow:visible;font-family:Tahoma"
     id="text7572" />
  <path
     d="M 490.40927,210.92368 L 490.40927,207.59036 C 490.01337,207.63336 489.51107,207.6943 488.90237,207.77315 C 488.29967,207.84483 487.81207,207.94878 487.43977,208.08497 C 486.99657,208.24985 486.63017,208.50433 486.34067,208.84841 C 486.05107,209.18534 485.90627,209.65845 485.90637,210.26776 C 485.90627,210.95594 486.06587,211.47565 486.38497,211.82691 C 486.70407,212.17815 487.17097,212.35379 487.78557,212.35379 C 488.31147,212.35379 488.78717,212.21758 489.21267,211.94517 C 489.63807,211.66562 490.03697,211.32511 490.40927,210.92368 M 490.40927,212.60108 C 490.27337,212.72296 490.09017,212.89499 489.85977,213.11722 C 489.63517,213.33227 489.41647,213.50431 489.20377,213.63334 C 488.90827,213.81972 488.62167,213.9631 488.34397,214.06345 C 488.07207,214.16381 487.68797,214.21398 487.19167,214.21398 C 486.78387,214.21398 486.39677,214.1208 486.03037,213.93442 C 485.66407,213.74804 485.34197,213.48639 485.06417,213.14948 C 484.79827,212.81973 484.58557,212.41471 484.42597,211.93442 C 484.26647,211.44697 484.18667,210.93442 484.18667,210.3968 C 484.18667,209.56526 484.33147,208.85917 484.62107,208.27853 C 484.91057,207.69072 485.36857,207.22477 485.99497,206.88067 C 486.55047,206.57245 487.20637,206.36098 487.96277,206.24627 C 488.71917,206.12441 489.53467,206.03481 490.40927,205.97746 L 490.40927,205.59036 C 490.40927,205.11726 490.35017,204.73732 490.23197,204.45057 C 490.11387,204.15668 489.94837,203.93087 489.73567,203.77316 C 489.52287,203.6083 489.26287,203.50077 488.95557,203.45058 C 488.64827,203.39324 488.33217,203.36457 488.00707,203.36456 C 487.62297,203.36457 487.17097,203.43625 486.65087,203.57961 C 486.13087,203.71583 485.61087,203.91654 485.09077,204.18176 L 484.99327,204.18176 L 484.99327,202.128 C 485.30057,202.02049 485.74087,201.90221 486.31407,201.77316 C 486.88727,201.64415 487.45457,201.57962 488.01597,201.57962 C 488.69557,201.57962 489.26877,201.64415 489.73567,201.77316 C 490.20247,201.90221 490.62207,202.13518 490.99437,202.47209 C 491.35477,202.80184 491.62367,203.22836 491.80097,203.75166 C 491.97827,204.27496 492.06687,204.91295 492.06687,205.66562 L 492.06687,213.88066 L 490.40927,213.88066 L 490.40927,212.60108"
     style="font-size:14px;font-style:normal;font-variant:normal;font-weight:normal;font-stretch:normal;text-indent:0;text-align:start;text-decoration:none;line-height:100%;letter-spacing:normal;word-spacing:normal;text-transform:none;direction:ltr;block-progression:tb;writing-mode:lr-tb;text-anchor:start;color:#000000;fill:#000000;fill-opacity:1;fill-rule:nonzero;stroke:none;stroke-width:1px;stroke-linecap:butt;stroke-linejoin:miter;marker:none;marker-start:none;marker-mid:none;marker-end:none;stroke-miterlimit:4;stroke-dashoffset:0;stroke-opacity:1;visibility:visible;display:inline;overflow:visible;font-family:Tahoma"
     id="text7578" />
  <path
     d="M 582.48607,267.9264 L 576.34317,267.9264 L 576.34317,272.44251 L 582.22907,272.44251 L 582.22907,274.33499 L 576.34317,274.33499 L 576.34317,282.04463 L 574.58817,282.04463 L 574.58817,266.03393 L 582.48607,266.03393 L 582.48607,267.9264 M 591.82887,282.04463 L 583.68277,282.04463 L 583.68277,279.79732 C 584.26777,279.12351 584.82027,278.47833 585.34037,277.86185 C 585.86037,277.24537 586.36857,276.60379 586.86497,275.93712 C 587.86957,274.59663 588.55507,273.52496 588.92147,272.72209 C 589.28787,271.91206 589.47107,271.07693 589.47107,270.21671 C 589.47107,269.77229 589.41197,269.38161 589.29377,269.04468 C 589.18147,268.70777 589.02487,268.42821 588.82397,268.20597 C 588.61707,267.99093 588.37777,267.82964 588.10597,267.72209 C 587.83407,267.61458 587.53567,267.56081 587.21067,267.56081 C 586.89747,267.56081 586.57837,267.61101 586.25337,267.71134 C 585.93427,267.80455 585.62697,267.92283 585.33147,268.06618 C 585.08327,268.18806 584.84397,268.33501 584.61347,268.50705 C 584.38297,268.67909 584.19687,268.82605 584.05507,268.9479 L 583.95757,268.9479 L 583.95757,266.66833 C 584.32387,266.44614 584.83217,266.23108 585.48217,266.02318 C 586.13807,265.80814 586.75857,265.70061 587.34367,265.7006 C 588.57277,265.70061 589.53607,266.09847 590.23337,266.89415 C 590.93067,267.68269 591.27927,268.75436 591.27937,270.10919 C 591.27927,270.73285 591.21727,271.30992 591.09317,271.84036 C 590.97497,272.37083 590.80947,272.86188 590.59677,273.31348 C 590.37817,273.77943 590.11517,274.24181 589.80787,274.70058 C 589.50057,275.15936 589.17557,275.61097 588.83277,276.05541 C 588.27737,276.78659 587.65687,277.54645 586.97137,278.33497 C 586.29177,279.12351 585.74807,279.74715 585.34037,280.20594 L 591.82887,280.20594 L 591.82887,282.04463"
     style="font-size:14px;font-style:normal;font-variant:normal;font-weight:normal;font-stretch:normal;text-indent:0;text-align:start;text-decoration:none;line-height:100%;letter-spacing:normal;word-spacing:normal;text-transform:none;direction:ltr;block-progression:tb;writing-mode:lr-tb;text-anchor:start;color:#000000;fill:#000000;fill-opacity:1;fill-rule:nonzero;stroke:none;stroke-width:1px;stroke-linecap:butt;stroke-linejoin:miter;marker:none;marker-start:none;marker-mid:none;marker-end:none;stroke-miterlimit:4;stroke-dashoffset:0;stroke-opacity:1;visibility:visible;display:inline;overflow:visible;font-family:Tahoma"
     id="text7583" />
  <path
     d="M 658.24357,256.2805 C 658.24357,257.07621 658.11947,257.77872 657.87127,258.38802 C 657.62307,258.99734 657.28917,259.49913 656.86967,259.89339 C 656.37327,260.36652 655.84137,260.70343 655.27407,260.90414 C 654.70677,261.0977 653.97407,261.19446 653.07577,261.19446 L 649.29077,261.19446 L 649.29077,245.18377 L 652.79217,245.18377 C 653.73177,245.18379 654.43497,245.22322 654.90177,245.30205 C 655.37457,245.37375 655.82667,245.54937 656.25807,245.82893 C 656.73077,246.13719 657.07647,246.54221 657.29517,247.04398 C 657.51377,247.53861 657.62307,248.12284 657.62307,248.79666 C 657.62307,249.54935 657.45767,250.22318 657.12667,250.81816 C 656.80167,251.41314 656.34957,251.8791 655.77047,252.21599 L 655.77047,252.30202 C 656.55647,252.5601 657.16507,253.03321 657.59647,253.72138 C 658.02787,254.40238 658.24357,255.25542 658.24357,256.2805 M 655.79707,249.09773 C 655.79707,248.71065 655.74387,248.37731 655.63757,248.09774 C 655.53117,247.81101 655.35977,247.5852 655.12337,247.42033 C 654.83977,247.22679 654.52357,247.1085 654.17497,247.06549 C 653.82627,247.02249 653.34467,247.00097 652.73007,247.00096 L 651.04587,247.00096 L 651.04587,251.68911 L 653.04037,251.68911 C 653.58987,251.68913 653.99467,251.65688 654.25477,251.59235 C 654.51477,251.52067 654.78357,251.37731 655.06137,251.16224 C 655.32727,250.95437 655.51637,250.68196 655.62867,250.34504 C 655.74097,250.00814 655.79707,249.59237 655.79707,249.09773 M 656.41757,256.36653 C 656.41757,255.76439 656.34667,255.26975 656.20487,254.88267 C 656.06297,254.4884 655.77637,254.15508 655.34507,253.88265 C 655.06727,253.70346 654.76297,253.58876 654.43197,253.53858 C 654.10697,253.48841 653.64307,253.46332 653.04037,253.4633 L 651.04587,253.4633 L 651.04587,259.37727 L 652.47307,259.37727 C 653.24127,259.37727 653.84697,259.33426 654.29017,259.24825 C 654.73337,259.16222 655.12337,258.97942 655.46027,258.69985 C 655.79117,258.42029 656.03347,258.10487 656.18707,257.75362 C 656.34077,257.3952 656.41757,256.93285 656.41757,256.36653"
     style="font-size:14px;font-style:normal;font-variant:normal;font-weight:normal;font-stretch:normal;text-indent:0;text-align:start;text-decoration:none;line-height:100%;letter-spacing:normal;word-spacing:normal;text-transform:none;direction:ltr;block-progression:tb;writing-mode:lr-tb;text-anchor:start;color:#000000;fill:#000000;fill-opacity:1;fill-rule:nonzero;stroke:none;stroke-width:1px;stroke-linecap:butt;stroke-linejoin:miter;marker:none;marker-start:none;marker-mid:none;marker-end:none;stroke-miterlimit:4;stroke-dashoffset:0;stroke-opacity:1;visibility:visible;display:inline;overflow:visible;font-family:Tahoma"
     id="text7588" />
  <path
     d="M 331.84007,31.331115 C 330.97727,31.331115 330.18247,31.155494 329.45557,30.804237 C 328.73467,30.452979 328.11117,29.929686 327.58527,29.234344 C 327.05937,28.539017 326.65157,27.671624 326.36207,26.632197 C 326.07247,25.592785 325.92767,24.399239 325.92767,23.051574 C 325.92767,21.711083 326.06657,20.542625 326.34427,19.546202 C 326.62797,18.54981 327.03867,17.682418 327.57637,16.944055 C 328.10237,16.227226 328.72577,15.682431 329.44677,15.309655 C 330.16767,14.929754 330.97437,14.739788 331.86667,14.739772 C 332.30987,14.739788 332.72357,14.779206 333.10767,14.858043 C 333.49767,14.936911 333.85817,15.037281 334.18907,15.159123 C 334.47267,15.266666 334.76227,15.402869 335.05777,15.567715 C 335.35917,15.725435 335.65457,15.901073 335.94417,16.094609 L 335.94417,18.66448 L 335.80237,18.66448 C 335.64867,18.49246 335.45077,18.284578 335.20847,18.040832 C 334.96617,17.797118 334.67067,17.556974 334.32207,17.320401 C 333.98517,17.098205 333.61877,16.915395 333.22287,16.77202 C 332.82697,16.62866 332.36897,16.556981 331.84897,16.556965 C 331.28757,16.556981 330.75567,16.69677 330.25337,16.976316 C 329.75107,17.25591 329.31087,17.668088 328.93267,18.212883 C 328.56037,18.757693 328.27077,19.442277 328.06397,20.266633 C 327.85707,21.091006 327.75367,22.01932 327.75367,23.051574 C 327.75367,24.148352 327.86307,25.094582 328.08167,25.890263 C 328.30037,26.678803 328.59877,27.345471 328.97697,27.890265 C 329.34337,28.42073 329.77477,28.822166 330.27117,29.094555 C 330.76747,29.359787 331.29347,29.492404 331.84897,29.492404 C 332.35717,29.492404 332.82697,29.417137 333.25837,29.266606 C 333.68967,29.116073 334.07387,28.926106 334.41067,28.696707 C 334.73567,28.474495 335.01637,28.248696 335.25277,28.019296 C 335.48917,27.782738 335.67527,27.582028 335.81117,27.417151 L 335.94417,27.417151 L 335.94417,29.954775 C 335.65457,30.119653 335.37977,30.277357 335.11977,30.42789 C 334.86567,30.578423 334.55547,30.725383 334.18907,30.868743 C 333.80497,31.019291 333.44747,31.133976 333.11647,31.212829 C 332.79147,31.291681 332.36597,31.331115 331.84007,31.331115"
     style="font-size:14px;font-style:normal;font-variant:normal;font-weight:normal;font-stretch:normal;text-indent:0;text-align:start;text-decoration:none;line-height:100%;letter-spacing:normal;word-spacing:normal;text-transform:none;direction:ltr;block-progression:tb;writing-mode:lr-tb;text-anchor:start;color:#000000;fill:#000000;fill-opacity:1;fill-rule:nonzero;stroke:none;stroke-width:1px;stroke-linecap:butt;stroke-linejoin:miter;marker:none;marker-start:none;marker-mid:none;marker-end:none;stroke-miterlimit:4;stroke-dashoffset:0;stroke-opacity:1;visibility:visible;display:inline;overflow:visible;font-family:Tahoma"
     id="text7593" />
  <path
     d="M 339.73197,490.97725 C 339.73197,492.43961 339.48677,493.7586 338.99627,494.93423 C 338.51167,496.10985 337.85867,497.02742 337.03727,497.68691 C 336.36947,498.19586 335.68997,498.53637 334.99857,498.70841 C 334.31307,498.88046 333.43547,498.96647 332.36587,498.96647 L 329.32547,498.96647 L 329.32547,482.95576 L 332.33037,482.95576 C 333.57137,482.95578 334.54347,483.07049 335.24667,483.29985 C 335.95587,483.52209 336.55857,483.83033 337.05497,484.22458 C 337.90597,484.90559 338.56487,485.81241 339.03167,486.945 C 339.49857,488.07047 339.73197,489.41455 339.73197,490.97725 M 337.90597,490.94498 C 337.90597,489.71204 337.73757,488.66185 337.40067,487.79446 C 337.06387,486.91992 336.56447,486.23893 335.90267,485.75147 C 335.43577,485.40738 334.93647,485.16008 334.40467,485.00954 C 333.87277,484.859 333.21087,484.78373 332.41907,484.78372 L 331.08057,484.78372 L 331.08057,497.13852 L 332.41907,497.13852 C 333.19907,497.13852 333.88167,497.06325 334.46667,496.91272 C 335.05167,496.76218 335.58647,496.48261 336.07107,496.07402 C 336.67977,495.57222 337.13777,494.90556 337.44507,494.07401 C 337.75227,493.23532 337.90597,492.19231 337.90597,490.94498"
     style="font-size:14px;font-style:normal;font-variant:normal;font-weight:normal;font-stretch:normal;text-indent:0;text-align:start;text-decoration:none;line-height:100%;letter-spacing:normal;word-spacing:normal;text-transform:none;direction:ltr;block-progression:tb;writing-mode:lr-tb;text-anchor:start;color:#000000;fill:#000000;fill-opacity:1;fill-rule:nonzero;stroke:none;stroke-width:1px;stroke-linecap:butt;stroke-linejoin:miter;marker:none;marker-start:none;marker-mid:none;marker-end:none;stroke-miterlimit:4;stroke-dashoffset:0;stroke-opacity:1;visibility:visible;display:inline;overflow:visible;font-family:Tahoma"
     id="text7598" />
  <path
     d="M 431.99917,490.51834 L 429.98697,490.51834 L 426.76927,484.10975 L 423.49837,490.51834 L 421.60147,490.51834 L 425.79427,482.50762 L 421.72557,474.50763 L 423.72887,474.50763 L 426.88457,480.79795 L 430.08447,474.50763 L 431.99027,474.50763 L 427.85957,482.40009 L 431.99917,490.51834"
     style="font-size:14px;font-style:normal;font-variant:normal;font-weight:normal;font-stretch:normal;text-indent:0;text-align:start;text-decoration:none;line-height:100%;letter-spacing:normal;word-spacing:normal;text-transform:none;direction:ltr;block-progression:tb;writing-mode:lr-tb;text-anchor:start;color:#000000;fill:#000000;fill-opacity:1;fill-rule:nonzero;stroke:none;stroke-width:1px;stroke-linecap:butt;stroke-linejoin:miter;marker:none;marker-start:none;marker-mid:none;marker-end:none;stroke-miterlimit:4;stroke-dashoffset:0;stroke-opacity:1;visibility:visible;display:inline;overflow:visible;font-family:Tahoma"
     id="text7603" />
  <path
     d="M 638.49237 258.44312 A 306.85153 229.80365 0 1 1  24.789307,258.44312 A 306.85153 229.80365 0 1 1  638.49237 258.44312 z"
     transform="matrix(1.011945,0,0,0.941806,-3.301564,13.37023)"
     style="fill:none;fill-opacity:1;fill-rule:nonzero;stroke:#000000;stroke-width:4.09732962;stroke-linecap:butt;stroke-linejoin:miter;stroke-miterlimit:4;stroke-dasharray:none;stroke-opacity:1"
     id="path9456" />
</svg>
