<?xml version="1.0" encoding="UTF-8" standalone="no"?>
<!-- Created with Inkscape (http://www.inkscape.org/) -->
<svg
   xmlns:dc="http://purl.org/dc/elements/1.1/"
   xmlns:cc="http://web.resource.org/cc/"
   xmlns:rdf="http://www.w3.org/1999/02/22-rdf-syntax-ns#"
   xmlns:svg="http://www.w3.org/2000/svg"
   xmlns="http://www.w3.org/2000/svg"
   xmlns:xlink="http://www.w3.org/1999/xlink"
   xmlns:sodipodi="http://sodipodi.sourceforge.net/DTD/sodipodi-0.dtd"
   xmlns:inkscape="http://www.inkscape.org/namespaces/inkscape"
   width="403.10999"
   height="353.53"
   id="svg2"
   sodipodi:version="0.32"
   inkscape:version="0.44"
   sodipodi:docbase="/home/ed/Desktop"
   sodipodi:docname="l4.svg"
   version="1.0">
  <defs
     id="defs4">
    <linearGradient
       id="linearGradient8812">
      <stop
         id="stop8814"
         offset="0.00000000"
         style="stop-color:#a7d6ff;stop-opacity:1.0000000;" />
      <stop
         id="stop8816"
         offset="1.0000000"
         style="stop-color:#a7d6ff;stop-opacity:0.00000000;" />
    </linearGradient>
    <linearGradient
       gradientTransform="matrix(0.526888,0,0,0.908943,183.576,167.2354)"
       gradientUnits="userSpaceOnUse"
       id="linearGradient9995"
       x1="577.008"
       x2="549.93549"
       xlink:href="#linearGradient8812"
       y1="71.327644"
       y2="98.11821" />
    <linearGradient
       gradientTransform="matrix(0.827149,0,0,0.57899,183.576,167.2354)"
       gradientUnits="userSpaceOnUse"
       id="linearGradient9990"
       x1="413.12741"
       x2="446.53641"
       xlink:href="#linearGradient7274"
       y1="204.25475"
       y2="234.64714" />
    <linearGradient
       id="linearGradient7274">
      <stop
         id="stop7276"
         offset="0.00000000"
         style="stop-color:#7e75a2;stop-opacity:1.0000000;" />
      <stop
         id="stop7278"
         offset="1.0000000"
         style="stop-color:#7e75a2;stop-opacity:0.00000000;" />
    </linearGradient>
    <linearGradient
       gradientTransform="matrix(0.827149,0,0,0.57899,181.7905,166.2104)"
       gradientUnits="userSpaceOnUse"
       id="linearGradient9985"
       x1="249.4538"
       x2="345.66855"
       xlink:href="#linearGradient7274"
       y1="98.588005"
       y2="166.91022" />
    <linearGradient
       id="linearGradient6500">
      <stop
         id="stop6502"
         offset="0.00000000"
         style="stop-color:#66798c;stop-opacity:1.0000000;" />
      <stop
         id="stop6504"
         offset="1.0000000"
         style="stop-color:#66798c;stop-opacity:0.00000000;" />
    </linearGradient>
    <linearGradient
       gradientTransform="matrix(0.826312,0,0,0.579577,183.576,167.2354)"
       gradientUnits="userSpaceOnUse"
       id="linearGradient9979"
       x1="362.67181"
       x2="384.60577"
       xlink:href="#linearGradient6500"
       y1="179.57222"
       y2="172.05354" />
    <linearGradient
       id="linearGradient5730">
      <stop
         id="stop5732"
         offset="0.00000000"
         style="stop-color:#7f97ae;stop-opacity:1.0000000;" />
      <stop
         id="stop5734"
         offset="1.0000000"
         style="stop-color:#7f97ae;stop-opacity:0.00000000;" />
    </linearGradient>
    <linearGradient
       gradientTransform="matrix(0.6658,0,0,0.719302,183.576,167.2354)"
       gradientUnits="userSpaceOnUse"
       id="linearGradient9974"
       x1="456.70795"
       x2="512.44427"
       xlink:href="#linearGradient5730"
       y1="137.72455"
       y2="98.53508" />
    <radialGradient
       cx="294.70374"
       cy="206.08632"
       fx="294.70374"
       fy="206.08632"
       gradientTransform="matrix(0.881013,0,0,0.543591,183.576,167.2354)"
       gradientUnits="userSpaceOnUse"
       id="radialGradient9969"
       r="22.642897"
       spreadMethod="pad"
       xlink:href="#linearGradient4166" />
    <linearGradient
       id="linearGradient4166">
      <stop
         id="stop4168"
         offset="0.00000000"
         style="stop-color:#f0e095;stop-opacity:1.0000000;" />
      <stop
         id="stop4170"
         offset="1.0000000"
         style="stop-color:#b7a860;stop-opacity:1.0000000;" />
    </linearGradient>
    <radialGradient
       cx="428.68643"
       cy="87.624062"
       fx="428.68643"
       fy="87.624062"
       gradientTransform="matrix(0.813869,0,0,0.588437,183.576,167.2354)"
       gradientUnits="userSpaceOnUse"
       id="radialGradient9964"
       r="27.344202"
       spreadMethod="pad"
       xlink:href="#linearGradient4166" />
    <marker
       inkscape:stockid="Arrow2Lend"
       orient="auto"
       refY="0"
       refX="0"
       id="Arrow2Lend"
       style="overflow:visible">
      <path
         id="path2940"
         style="font-size:12px;fill:red;fill-rule:evenodd;stroke-width:0.625;stroke-linejoin:round"
         d="M 8.7185878,4.0337352 L -2.2072895,0.016013256 L 8.7185884,-4.0017078 C 6.97309,-1.6296469 6.9831476,1.6157441 8.7185878,4.0337352 z "
         transform="matrix(-1.1,0,0,-1.1,-1.1,0)" />
    </marker>
    <linearGradient
       id="linearGradient5296">
      <stop
         style="stop-color:#e4b270;stop-opacity:1.0000000;"
         offset="0.00000000"
         id="stop5298" />
      <stop
         style="stop-color:#e4b270;stop-opacity:0.00000000;"
         offset="1.0000000"
         id="stop5300" />
    </linearGradient>
    <linearGradient
       id="linearGradient6114">
      <stop
         style="stop-color:#d3ecff;stop-opacity:1;"
         offset="0"
         id="stop6116" />
      <stop
         style="stop-color:#a3d7ff;stop-opacity:0.00000000;"
         offset="1.0000000"
         id="stop6118" />
    </linearGradient>
    <linearGradient
       id="linearGradient6930">
      <stop
         style="stop-color:#77a3c7;stop-opacity:1;"
         offset="0"
         id="stop6932" />
      <stop
         style="stop-color:#447aa6;stop-opacity:0.00000000;"
         offset="1.0000000"
         id="stop6934" />
    </linearGradient>
    <linearGradient
       id="linearGradient8564">
      <stop
         style="stop-color:#e4b270;stop-opacity:1.0000000;"
         offset="0.00000000"
         id="stop8566" />
      <stop
         style="stop-color:#e4b270;stop-opacity:0.00000000;"
         offset="1.0000000"
         id="stop8568" />
    </linearGradient>
    <linearGradient
       id="linearGradient11001">
      <stop
         style="stop-color:#ffffff;stop-opacity:1.0000000;"
         offset="0.00000000"
         id="stop11003" />
      <stop
         style="stop-color:#ffffff;stop-opacity:0.00000000;"
         offset="1.0000000"
         id="stop11005" />
    </linearGradient>
    <linearGradient
       id="linearGradient11011">
      <stop
         style="stop-color:#ffffff;stop-opacity:1.0000000;"
         offset="0.00000000"
         id="stop11013" />
      <stop
         style="stop-color:#ffffff;stop-opacity:0.00000000;"
         offset="1.0000000"
         id="stop11015" />
    </linearGradient>
    <linearGradient
       id="linearGradient11829">
      <stop
         style="stop-color:#ffffff;stop-opacity:1.0000000;"
         offset="0.00000000"
         id="stop11831" />
      <stop
         style="stop-color:#ffffff;stop-opacity:0.00000000;"
         offset="1.0000000"
         id="stop11833" />
    </linearGradient>
    <linearGradient
       id="linearGradient2367">
      <stop
         style="stop-color:#ffff87;stop-opacity:1.0000000;"
         offset="0.0000000"
         id="stop2368" />
      <stop
         style="stop-color:#f9ff00;stop-opacity:1.0000000;"
         offset="1.0000000"
         id="stop2369" />
    </linearGradient>
    <linearGradient
       inkscape:collect="always"
       xlink:href="#linearGradient11829"
       id="linearGradient6246"
       gradientUnits="userSpaceOnUse"
       gradientTransform="matrix(1.002456,0,0,0.612352,661.0302,-295.2253)"
       x1="-380.04468"
       y1="1007.2507"
       x2="-370.10059"
       y2="1016.4421" />
    <linearGradient
       inkscape:collect="always"
       xlink:href="#linearGradient11001"
       id="linearGradient6249"
       gradientUnits="userSpaceOnUse"
       gradientTransform="matrix(1.044853,0,0,0.587505,661.0302,-295.2253)"
       x1="-349.88315"
       y1="1239.4677"
       x2="-322.99942"
       y2="1260.8375" />
    <linearGradient
       inkscape:collect="always"
       xlink:href="#linearGradient11011"
       id="linearGradient6252"
       gradientUnits="userSpaceOnUse"
       gradientTransform="matrix(0.993811,0,0,0.617681,661.0302,-295.2253)"
       x1="-404.03406"
       y1="1081.1377"
       x2="-380.20712"
       y2="1102.4374" />
    <linearGradient
       inkscape:collect="always"
       xlink:href="#linearGradient8564"
       id="linearGradient6255"
       gradientUnits="userSpaceOnUse"
       gradientTransform="matrix(0.574602,0,0,1.068314,661.0302,-295.2253)"
       x1="-594.90228"
       y1="621.28558"
       x2="-481.1633"
       y2="684.27393" />
    <linearGradient
       inkscape:collect="always"
       xlink:href="#linearGradient5296"
       id="linearGradient6258"
       gradientUnits="userSpaceOnUse"
       gradientTransform="matrix(0.562239,0,0,1.091808,661.7612,-294.3856)"
       x1="-712.03973"
       y1="618.224"
       x2="-664.81915"
       y2="689.1936" />
    <linearGradient
       inkscape:collect="always"
       xlink:href="#linearGradient6930"
       id="linearGradient6261"
       gradientUnits="userSpaceOnUse"
       gradientTransform="matrix(0.920121,0,0,0.667148,661.0302,-295.2253)"
       x1="-337.15262"
       y1="1111.5994"
       x2="-357.19342"
       y2="1089.6976" />
    <linearGradient
       inkscape:collect="always"
       xlink:href="#linearGradient6114"
       id="linearGradient6264"
       gradientUnits="userSpaceOnUse"
       gradientTransform="matrix(0.865867,0,0,0.682558,623.0239,-329.4831)"
       x1="-400.31952"
       y1="961.79327"
       x2="-364.75821"
       y2="997.6897" />
  </defs>
  <sodipodi:namedview
     id="base"
     pagecolor="#ffffff"
     bordercolor="#666666"
     borderopacity="1.0"
     gridtolerance="10000"
     guidetolerance="10000"
     objecttolerance="0.4"
     inkscape:pageopacity="0.0"
     inkscape:pageshadow="2"
     inkscape:zoom="1.1806729"
     inkscape:cx="279.63155"
     inkscape:cy="182.28906"
     inkscape:document-units="px"
     inkscape:current-layer="layer1"
     inkscape:object-points="true"
     inkscape:window-width="1592"
     inkscape:window-height="945"
     inkscape:window-x="0"
     inkscape:window-y="27"
     width="403.11px"
     height="353.53px" />
  <metadata
     id="metadata7">
    <rdf:RDF>
      <cc:Work
         rdf:about="">
        <dc:format>image/svg+xml</dc:format>
        <dc:type
           rdf:resource="http://purl.org/dc/dcmitype/StillImage" />
      </cc:Work>
    </rdf:RDF>
  </metadata>
  <g
     inkscape:label="Layer 1"
     inkscape:groupmode="layer"
     id="layer1"
     transform="translate(-226.4769,-112.257)">
    <g
       id="g6012"
       transform="matrix(0.192656,0,0,0.195924,425.523,308.8673)">
      <path
         id="path2179"
         d="M 992.33314,372.28882 C 994.3571,432.75171 938.59184,486.36862 878.5758,486.63883 C 838.35584,487.64408 798.54502,466.43804 777.55513,432.2227 C 757.66245,401.52938 753.9207,361.17905 768.81614,327.67534 C 791.57228,274.63475 857.86658,244.33106 912.88719,263.81908 C 958.55083,278.68925 993.42002,323.96819 992.33314,372.28882 z "
         style="fill:#32302c;fill-opacity:1;stroke:none;stroke-width:0.42500001;stroke-miterlimit:4;stroke-dasharray:5.1, 0.425;stroke-dashoffset:0;stroke-opacity:1" />
      <path
         sodipodi:nodetypes="cccccccccccccccc"
         id="path3517"
         d="M 858.28827,483.45557 C 839.3384,484.9331 821.15496,466.01055 811.22936,456.6562 C 822.31665,455.28269 820.54818,442.59268 831.27122,447.10577 C 843.93865,447.53344 850.20735,438.44486 849.87159,428.82519 C 851.93087,423.97528 857.02996,411.05166 855.91498,420.1347 C 855.18196,425.61835 862.73839,440.66825 859.32657,430.98541 C 860.84005,425.65829 877.32947,423.21751 863.59611,422.70652 C 866.12437,413.04534 858.06618,401.77593 867.71718,392.81801 C 877.14676,381.4529 887.77699,396.50339 897.08832,400.11612 C 906.48661,401.82005 900.77817,416.44322 910.74836,416.57118 C 914.63078,424.62244 912.38411,439.24057 926.17394,435.76522 C 926.85215,446.29002 934.9321,431.46349 942.15727,434.66063 C 952.24977,432.28108 959.67961,440.87629 949.18048,447.21411 C 937.81918,458.55921 923.447,466.40845 909.50009,474.03078 C 898.29289,479.94762 892.19885,479.20006 882.80286,480.33834 C 877.7373,483.5096 863.98413,484.40218 858.28827,483.45557 z "
         style="fill:#afa698" />
      <path
         sodipodi:nodetypes="ccc"
         id="path3389"
         d="M 790.5863,442.11282 C 786.38001,436.77344 771.57411,429.95316 776.51602,423.3141 C 782.13364,425.25762 790.32749,433.33501 790.5863,442.11282 z "
         style="fill:#afa698" />
      <path
         sodipodi:nodetypes="cccccccccccccccccccccc"
         id="path3310"
         d="M 947.10022,373.4147 C 938.29126,355.94816 923.16666,354.28383 917.53551,339.41692 C 922.97389,330.22769 923.40682,319.59136 922.06364,309.93189 C 917.75025,304.66336 901.93729,302.48515 910.43911,293.22495 C 900.47488,279.13655 881.37019,284.34445 866.82778,281.28249 C 855.28888,277.07187 838.76233,273.86613 826.35356,275.90216 C 812.86707,276.79076 836.14055,266.35059 840.99639,264.99583 C 853.50858,259.6713 867.04578,258.18358 880.50752,259.24388 C 901.43977,260.29785 922.44395,265.63988 940.41193,276.65557 C 948.94353,282.40951 947.75091,297.70832 941.79049,286.34237 C 946.86616,271.49048 916.05022,281.09126 933.2553,288.70586 C 939.55787,291.05548 954.27256,300.99494 939.93109,300.82406 C 930.3504,285.76113 925.23754,309.67677 932.17562,316.57214 C 936.39639,314.81795 949.86153,304.34451 949.05472,319.03636 C 948.67128,325.66869 958.42391,332.1863 956.90597,320.00449 C 960.90202,314.8027 966.83463,309.47708 956.42279,309.51498 C 943.73144,307.63624 953.57858,284.1424 960.20331,298.31699 C 969.36658,309.32872 982.83015,323.87228 979.12707,339.71958 C 973.967,351.19923 974.03723,332.50956 966.08624,334.842 C 955.0014,333.3876 937.93404,335.98607 936.94719,347.90104 C 944.24495,349.21021 953.14672,351.388 951.78848,361.97984 C 950.85465,366.44495 956.20143,373.43391 947.10022,373.4147 z "
         style="fill:#afa698" />
      <path
         sodipodi:nodetypes="cccccccccccccccccccccccccccccccc"
         id="path4341"
         d="M 870.19196,485.00839 C 866.5016,480.16471 882.76311,482.35744 880.28721,475.34191 C 887.02948,472.40202 884.82198,480.17459 893.00282,476.81165 C 910.29199,475.80529 923.44085,464.71287 936.97056,454.79921 C 946.43544,452.83278 962.49662,434.41311 944.96893,434.55696 C 935.61309,433.52023 929.20377,444.90717 924.25434,437.59466 C 913.47374,439.03488 909.96116,427.57777 910.67176,420.20978 C 907.2227,414.56584 895.98177,411.75206 899.5857,403.35911 C 887.49784,401.52885 875.10833,378.37916 866.41862,398.1075 C 865.43722,405.68233 863.72155,417.10438 864.42534,422.46894 C 876.98487,423.50043 858.21249,426.34999 860.60427,434.21227 C 855.04293,442.70344 856.58955,414.31818 853.22784,421.3673 C 852.39203,429.33175 842.58367,435.75895 845.44075,443.41685 C 835.31033,449.21169 822.25905,452.63117 814.42516,459.05493 C 824.32383,463.00829 832.67919,469.71051 839.83207,477.6076 C 836.82658,480.16466 825.19967,470.91726 819.68025,468.12641 C 814.80612,464.26587 795.92952,455.88577 802.22128,452.26279 C 795.80588,446.03917 807.56602,441.2797 810.92076,447.87111 C 814.99515,452.06394 823.28157,449.31201 822.90844,442.38564 C 836.41771,453.77669 852.88634,437.90849 845.27609,424.0624 C 841.05827,416.92207 832.57194,396.2011 848.60771,401.311 C 862.41474,405.46386 858.61653,383.23634 868.36433,380.34724 C 876.26018,378.19117 889.99977,377.59324 889.71018,389.85871 C 891.40298,400.96495 910.28616,396.91413 905.99118,411.989 C 916.27306,412.68873 919.09022,422.92632 917.18003,429.30202 C 924.88621,442.60485 940.48591,421.76916 923.68143,417.8031 C 912.5036,413.9731 914.42063,387.40926 929.22323,395.69579 C 932.29662,405.36635 947.4297,414.8272 947.10961,423.01275 C 936.85518,425.32566 939.50131,435.37613 946.54145,430.1102 C 954.28017,424.42389 968.76055,428.66957 960.79909,439.40771 C 954.56718,456.17317 935.23391,460.69872 921.88583,472.18753 C 907.19387,481.0151 887.01381,483.49162 870.19196,485.00839 z "
         style="fill:#959188" />
      <path
         sodipodi:nodetypes="cccccc"
         id="path4181"
         d="M 794.52704,448.17416 C 787.67853,447.62548 776.23503,430.40928 778.43678,430.94868 C 781.50587,436.38441 789.1876,436.02469 779.27627,424.68101 C 772.56179,424.11839 769.93157,415.96584 772.12416,415.11421 C 778.74081,417.17053 788.31608,406.75912 787.20914,427.81535 C 788.53976,435.41477 798.45402,439.41512 794.52704,448.17416 z "
         style="fill:#959188" />
      <g
         id="g5708">
        <path
           style="fill:#959188"
           d="M 894.95435,474.10291 C 888.78378,478.12998 876.98596,464.21963 889.37041,467.47763 C 895.19486,466.83854 910.42928,461.97744 898.57739,469.26223 C 898.03134,471.32537 898.8976,476.49655 894.95435,474.10291 z "
           id="path4241" />
        <path
           style="fill:#959188"
           d="M 902.89612,472.07874 C 907.14938,466.08519 907.76494,477.05924 902.89612,472.07874 z "
           id="path4231" />
        <path
           style="fill:#959188"
           d="M 898.78955,459.00357 C 905.24197,451.46782 910.89638,461.40208 898.78955,459.00357 z "
           id="path4217" />
        <path
           style="fill:#959188"
           d="M 889.33752,445.45819 C 890.53774,435.36196 901.17286,442.16408 889.33752,445.45819 z "
           id="path4159" />
        <path
           style="fill:#959188"
           d="M 853.37024,442.56958 C 850.58443,436.20636 860.12846,443.12347 853.37024,442.56958 z "
           id="path4151" />
        <path
           style="fill:#959188"
           d="M 865.78198,440.48196 C 863.36293,430.83069 880.36988,432.79847 870.63998,439.6022 C 869.10387,440.24131 867.42937,440.43198 865.78198,440.48196 z "
           id="path4147" />
        <path
           style="fill:#959188"
           d="M 874.10303,402.71634 C 875.728,394.86396 879.03826,408.50737 874.10303,402.71634 z "
           id="path4055" />
      </g>
      <path
         sodipodi:nodetypes="cccccccccccccccccccscccccscccccccc"
         id="path4003"
         d="M 959.51337,381.90656 C 943.45044,377.90239 939.21121,358.46309 924.61767,352.15558 C 913.68578,356.6781 915.44221,336.99908 911.95417,331.87469 C 918.37966,328.58882 924.21302,323.1201 911.05745,319.37177 C 903.73304,319.93254 895.05266,313.78109 904.54288,305.79169 C 910.61016,292.84874 895.14675,286.62708 883.92548,287.67491 C 866.70675,287.92512 849.25219,278.82548 832.57805,280.78759 C 828.33555,285.68881 808.28752,282.67218 821.21157,276.22848 C 844.33972,270.87443 857.26083,277.09312 874.65642,281.25085 C 887.40512,279.27395 911.13326,281.36447 911.35761,298.23384 C 911.16985,308.18871 930.69573,305.22156 923.58522,317.96927 C 925.84877,328.14477 912.68039,340.82687 925.10987,347.98267 C 937.39185,348.50537 937.71555,368.29815 950.1392,368.05671 C 953.30121,356.72874 939.16698,348.66472 934.6576,347.77665 C 940.65301,335.17701 957.68425,332.32591 970.19011,334.51862 C 974.58275,335.4485 975.56118,349.03325 979.02526,338.79313 C 982.96414,322.77405 968.15996,311.39192 960.32849,299.44017 C 952.46644,283.62589 946.32306,310.51099 959.60257,309.78327 C 965.66255,310.46896 965.63792,321.47856 958.30005,320.28699 C 962.13331,325.25375 960.25659,329.46676 956.66745,329.86501 C 951.92799,330.3909 944.73773,325.27383 949.05472,319.03636 C 948.27845,303.05943 931.50856,318.87297 930.92259,318.67032 C 927.77314,310.09684 925.55063,295.47186 935.59809,295.02783 C 938.23968,300.26825 950.001,302.80249 942.90817,294.94453 C 931.4644,291.13249 918.80776,280.53545 934.96679,277.06135 C 937.67385,276.99523 940.21253,277.05927 941.75717,280.35505 C 943.63186,284.35502 944.60964,291.4134 949.90158,287.01356 C 962.41918,290.69125 967.58035,306.019 975.23537,315.71215 C 981.89463,325.99257 984.14573,336.84098 978.96811,347.64055 C 978.39446,354.6833 986.11861,369.78804 979.80408,371.6941 C 979.09858,365.43941 968.00241,363.88259 969.34644,363.00757 C 978.94908,352.20428 967.0487,331.09463 953.15448,341.11672 C 943.45478,349.17026 946.09896,368.97727 960.28268,370.08057 C 970.70129,371.05608 967.54867,380.08879 959.51337,381.90656 z "
         style="fill:#959188" />
      <g
         id="g5688">
        <path
           style="fill:#959188"
           d="M 962.02221,330.52768 C 957.51449,319.29603 973.83453,333.11768 962.02221,330.52768 z "
           id="path3725" />
        <path
           style="fill:#959188"
           d="M 935.99701,324.24945 C 931.13429,318.42658 942.82204,322.76295 935.99701,324.24945 z "
           id="path3713" />
        <path
           style="fill:#959188"
           d="M 963.60059,322.72739 C 959.8907,315.80664 969.91804,324.88523 963.60059,322.72739 z "
           id="path3711" />
        <path
           style="fill:#959188"
           d="M 970.40039,322.47882 C 962.42204,316.60901 975.22408,321.91196 970.40039,322.47882 z "
           id="path3707" />
        <path
           style="fill:#959188"
           d="M 968.60608,317.44467 C 963.45271,314.08404 974.25061,315.2395 968.60608,317.44467 z "
           id="path3703" />
        <path
           style="fill:#959188"
           d="M 957.05973,305.27035 C 964.09903,299.36838 960.29482,311.27095 957.05973,305.27035 z "
           id="path3683" />
        <path
           style="fill:#959188"
           d="M 923.79102,292.21149 C 914.15912,283.88051 934.71058,292.60213 923.79102,292.21149 L 923.79102,292.21149 z "
           id="path3647" />
      </g>
      <path
         sodipodi:nodetypes="ccccccccccccccccccccccccccccccccccccccccccccccccccccccccccccscscccccccc"
         id="path5007"
         d="M 882.01044,484.41931 C 901.8842,480.13893 923.7039,473.88583 938.01277,458.68931 C 948.51608,452.98749 961.55232,447.18939 960.20887,433.26251 C 954.14934,420.51148 944.94585,442.46982 937.02401,428.0271 C 940.78408,426.2835 947.36005,422.30125 941.96795,416.00062 C 934.73715,411.73469 932.22758,389.76206 920.37174,401.63519 C 924.33572,416.40009 930.39166,419.58343 934.43205,428.91892 C 935.03774,444.71924 910.36824,432.99197 913.80778,420.30097 C 913.22801,415.10809 901.28907,411.75542 900.71244,403.769 C 896.23415,395.23613 883.30438,399.15674 885.79165,385.35836 C 883.24423,374.09493 872.92724,389.3746 865.83586,386.29698 C 861.84907,393.4534 858.75089,408.70003 846.97746,402.20741 C 831.48294,405.46916 850.06383,421.12667 849.86698,430.68527 C 851.84666,443.76042 836.53567,451.4616 824.97003,446.47307 C 818.65434,449.16544 816.07276,455.41155 809.26203,448.09408 C 802.94344,443.08658 805.54599,447.55613 805.62895,451.3546 C 798.02906,459.0386 816.5126,460.57013 819.66136,466.94891 C 824.42126,469.66082 830.84414,477.5562 821.30005,471.15534 C 803.75381,461.3776 788.11648,447.7122 777.40183,430.61355 C 779.548,435.63637 790.24005,447.66368 792.20512,442.37123 C 785.18597,435.82636 790.95433,417.92927 778.30182,421.15279 C 766.019,415.6505 769.15409,401.42638 763.55271,391.58771 C 761.52477,387.27896 759.16879,370.55059 762.54992,371.98013 C 764.04915,387.143 767.88462,403.2403 779.25595,414.17912 C 789.80789,403.8275 797.42925,423.34223 788.03742,429.49341 C 787.3211,441.46162 805.2267,435.18485 809.05576,435.66019 C 806.77189,442.48676 801.26339,433.62184 804.43998,432.68179 C 806.22758,421.35114 803.95777,424.35999 811.77682,421.82354 C 821.80177,426.50075 825.12757,436.42279 825.70297,443.26284 C 839.24132,450.57956 847.50055,435.04852 840.61314,423.30765 C 837.81481,415.00123 832.64716,405.91196 833.67803,396.80227 C 837.46151,389.29897 860.41859,401.65046 852.3924,389.50383 C 837.55401,383.33457 865.39032,366.93364 868.70982,381.50475 C 879.37206,389.35804 887.48253,356.32734 892.89788,364.76755 C 889.77302,380.15261 895.03751,392.97336 908.44359,399.81775 C 915.90741,400.51031 916.09261,390.45539 926.71741,392.86133 C 943.64886,391.69009 935.06864,413.66588 952.0258,413.96315 C 960.33776,415.50947 944.04121,426.23754 954.51903,420.5292 C 964.12344,407.43645 959.75471,398.36731 967.28647,384.19182 C 952.19098,389.04217 942.23681,380.18115 933.74346,363.25448 C 920.76755,354.37507 908.72593,365.93028 911.68711,348.99985 C 911.1941,339.91335 906.28497,319.47949 897.80282,323.46293 C 893.69873,332.21177 875.57097,316.74091 876.62659,331.12612 C 861.55447,336.68788 876.00251,358.62384 861.22937,363.71752 C 856.32469,370.22415 837.65325,368.31282 841.14422,363.00488 C 856.99888,359.13126 839.14308,342.94204 849.81139,337.28327 C 856.77794,332.97747 858.43437,325.27345 856.96019,319.44458 C 864.12759,307.1001 847.82514,298.34446 837.14492,299.82803 C 824.19559,297.41648 817.29848,311.42767 806.41049,310.86669 C 797.84027,298.51994 817.744,292.49452 825.92089,287.73975 C 823.83372,288.31375 807.66248,285.08133 815.4007,276.26512 C 819.18667,273.01848 831.8939,270.40292 823.61035,275.74872 C 816.50424,285.63455 831.9688,278.79674 836.73226,279.90181 C 850.10515,279.19195 861.36048,284.2886 874.26076,286.46245 C 885.42688,286.996 905.18472,285.07156 907.43234,299.43051 C 902.52538,306.82403 901.12083,321.72628 914.38435,316.68296 C 926.79221,318.89805 921.39869,332.27989 914.68618,331.82664 C 914.887,340.45091 916.95464,357.24534 926.46718,351.42709 C 939.00203,361.2367 944.28365,375.73706 959.83814,379.91455 C 973.66115,377.53506 958.81223,368.75489 951.96779,368.95796 C 945.85942,362.98106 945.79801,347.58172 951.38084,341.84973 C 956.57883,336.51286 965.13388,335.28537 970.15519,342.84252 C 973.45427,346.76622 973.26314,351.80158 972.30176,356.74237 C 971.25621,362.11578 970.52221,363.36389 977.30146,366.0616 C 980.08683,369.16733 978.26815,374.695 982.40221,367.80529 C 980.99809,356.54497 970.56647,350.58391 981.20821,341.04043 C 982.38637,324.01342 973.84199,321.6458 976.85331,316.61087 C 987.08864,327.29249 982.25751,342.47253 983.6954,355.53225 C 987.64966,371.52987 983.47887,387.94929 984.09607,404.13893 C 973.42131,437.3067 946.23485,463.77656 914.68985,477.512 C 904.25961,481.54779 893.17036,483.81609 882.01044,484.41931 z "
         style="fill:#747169" />
      <g
         id="g5697">
        <path
           style="fill:#747169"
           d="M 958.22705,373.9742 C 962.86216,368.71039 962.6024,381.19973 958.22705,373.9742 L 958.22705,373.9742 z "
           id="path4565" />
        <path
           style="fill:#747169"
           d="M 907.66992,310.08707 C 911.02513,303.45404 912.91292,315.86953 907.66992,310.08707 z "
           id="path4463" />
      </g>
      <g
         id="g5680">
        <path
           style="fill:#747169"
           d="M 955.59,325.09181 C 949.88812,318.02754 963.56166,329.79859 955.59,325.09181 z "
           id="path4479" />
        <path
           style="fill:#747169"
           d="M 956.83596,317.9191 C 944.38844,307.8709 970.48737,319.83916 956.83596,317.9191 z "
           id="path4475" />
        <path
           style="fill:#747169"
           d="M 939.33575,307.68225 C 930.9757,305.49491 936.32907,296.73612 940.70742,305.14024 C 941.63902,306.04306 941.08187,308.40859 939.33575,307.68225 z "
           id="path4459" />
        <path
           style="fill:#747169"
           d="M 944.60797,306.10284 C 938.71494,302.29608 949.58841,301.65625 944.60797,306.10284 z "
           id="path4457" />
        <path
           style="fill:#747169"
           d="M 940.7373,292.66299 C 945.59138,287.18441 947.44951,299.57442 940.7373,292.66299 z "
           id="path4431" />
        <path
           style="fill:#747169"
           d="M 938.34729,283.80786 C 938.15165,271.67338 926.97669,288.62754 938.34729,283.80786 z "
           id="path4419" />
      </g>
      <path
         sodipodi:nodetypes="ccccccc"
         id="path5613"
         d="M 906.50409,480.38553 C 941.77413,468.72845 971.86056,440.29632 983.61886,404.89154 C 982.74031,387.80963 985.84078,370.75097 983.13364,353.92864 C 981.73322,330.52561 986.84203,327.41774 988.3624,350.48262 C 993.88355,363.67004 982.30635,377.3858 987.97192,390.76037 C 985.82282,404.84324 979.70242,418.21059 972.5616,430.44476 C 957.516,454.29736 933.70834,472.68267 906.50409,480.38553 z "
         style="fill:#52504a" />
      <path
         sodipodi:nodetypes="ccccccccccccccccccccccccccccccccccccccccsccccccc"
         id="path5587"
         d="M 817.97766,450.85764 C 809.4239,450.06434 810.61857,430.65997 799.98255,441.11357 C 781.36723,441.42063 792.97271,414.44111 778.72528,415.37732 C 765.12855,415.46799 767.72104,396.88637 764.38081,386.99614 C 764.69147,377.00168 757.09137,367.17025 762.35666,358.98848 C 766.07942,365.97529 764.47701,376.86304 767.08586,385.07443 C 768.60083,396.63982 774.95634,406.93342 786.98673,408.7102 C 795.29766,409.91562 801.61237,423.40726 792.14792,426.28026 C 786.78247,437.51822 806.73839,442.26552 803.40776,427.65594 C 809.69244,419.21601 802.93838,412.90719 798.75043,406.27543 C 801.88486,397.44537 799.11037,385.23408 788.69597,384.53981 C 779.29019,373.50668 792.0107,359.12573 786.24925,347.03903 C 778.98612,340.32478 786.89102,320.67727 794.67478,332.60598 C 795.89198,339.09653 788.16903,361.83265 800.05539,356.3241 C 801.93675,349.03187 806.60481,342.44239 814.58255,344.12095 C 818.60816,335.34628 826.49849,353.79721 829.34519,340.52568 C 831.73735,338.09884 832.73097,351.68828 834.97195,341.85334 C 839.84214,331.46813 844.18899,317.3629 834.49803,307.99289 C 821.41627,295.8959 814.57089,319.6462 802.33219,317.74219 C 799.55529,307.19642 803.2762,296.20218 805.87351,286.00839 C 807.31267,280.00677 817.60179,275.71969 817.1952,276.03637 C 808.50969,279.42453 814.94629,287.61014 822.27987,285.01499 C 832.15656,288.45012 816.44638,293.99058 812.88065,294.60107 C 805.05332,297.94412 801.20531,317.30272 813.75446,308.60383 C 825.34587,297.59517 846.34579,294.24597 858.23633,306.55824 C 860.63748,318.67528 858.32894,331.91872 847.79855,339.33459 C 842.35242,348.24673 854.18328,356.437 843.95104,362.23776 C 844.18026,374.24235 866.23586,364.24762 867.4338,354.66037 C 867.46489,348.0512 864.9044,336.53531 876.14239,331.62813 C 874.09983,321.99782 882.88102,325.47195 891.07599,325.52219 C 896.3072,320.34231 907.53121,319.88435 910.10562,332.99123 C 911.49171,342.98308 911.97723,363.13179 927.11316,357.07641 C 937.19346,364.05136 944.59423,381.46353 958.96348,382.38049 C 969.87649,381.33987 972.55847,379.76285 966.28838,394.65742 C 961.45893,404.68653 960.67169,417.54586 951.60314,424.94178 C 946.27074,427.18646 955.22142,416.60154 947.47696,415.61339 C 935.67502,411.34656 940.655,392.39376 927.01918,392.43904 C 915.54475,390.50733 913.11934,415.07679 903.42391,400.82209 C 896.40582,393.7334 884.92289,388.92082 890.83131,376.47818 C 894.50591,370.41746 884.3932,360.94854 885.51897,371.62774 C 882.43968,381.02777 870.69547,386.26292 866.95533,379.86321 C 863.46442,373.88995 853.11776,377.55274 849.06564,381.47954 C 848.42773,389.45729 862.91584,398.13879 847.73255,395.96568 C 837.29499,394.06026 828.9221,403.41069 838.45353,411.35699 C 844.96512,421.60973 848.45292,443.84539 831.96574,445.85518 C 817.68536,446.3255 816.66642,429.10366 810.65901,422.09344 C 799.75354,425.35248 808.71637,432.94446 815.13093,434.07681 C 818.43872,439.05519 816.36141,445.40614 817.97766,450.85764 z "
         style="fill:#52504a" />
      <g
         id="g5717">
        <path
           style="fill:#52504a"
           d="M 922.6012,431.57477 C 909.01799,424.58189 934.3832,414.27305 929.04467,428.54086 C 928.63795,431.34811 924.74441,431.3877 922.6012,431.57477 z "
           id="path5275" />
        <g
           id="g5701">
          <path
             id="path5257"
             d="M 961.95227,420.32611 C 958.30061,410.81516 971.64139,422.02753 961.95227,420.32611 z "
             style="fill:#52504a" />
          <path
             id="path5251"
             d="M 969.77863,418.67142 C 966.83041,411.00525 977.27042,417.41176 969.77863,418.67142 z "
             style="fill:#52504a" />
          <g
             id="g5675">
            <path
               style="fill:#52504a"
               d="M 970.98328,376.89801 C 963.40801,369.28689 983.60234,368.74402 972.87003,375.61755 C 972.2713,376.08793 971.61352,376.47308 970.98328,376.89801 z "
               id="path5223" />
            <path
               style="fill:#52504a"
               d="M 956.98438,368.76266 C 942.7292,365.28115 948.25796,341.8304 961.6779,342.00993 C 975.21033,345.66523 970.97705,369.62148 956.98438,368.76266 z "
               id="path5203" />
          </g>
        </g>
      </g>
      <g
         id="g5655">
        <path
           style="fill:#52504a"
           d="M 796.46063,348.87817 C 790.18223,343.04867 801.13863,348.56817 796.46063,348.87817 L 796.46063,348.87817 z "
           id="path5185" />
        <path
           style="fill:#52504a"
           d="M 819.32983,339.38086 C 813.7702,337.19929 822.37352,335.58106 819.32983,339.38086 z "
           id="path5173" />
        <path
           style="fill:#52504a"
           d="M 802.93646,336.686 C 800.2259,326.56813 814.69693,339.16648 802.93646,336.686 L 802.93646,336.686 z "
           id="path5167" />
        <path
           style="fill:#52504a"
           d="M 800.98145,329.23468 C 789.33249,327.31966 808.25253,324.17893 800.98145,329.23468 z "
           id="path5145" />
        <path
           style="fill:#52504a"
           d="M 809.80811,328.76697 C 806.58942,320.14778 817.2496,323.24155 812.55141,328.6817 L 811.39713,328.89998 L 809.80811,328.76697 L 809.80811,328.76697 z "
           id="path5143" />
      </g>
      <g
         id="g5647">
        <path
           style="fill:#52504a"
           d="M 857.99896,347.68253 C 847.65948,336.78999 873.84137,346.45482 857.99896,347.68253 L 857.99896,347.68253 z "
           id="path5183" />
        <path
           style="fill:#52504a"
           d="M 865.02344,332.67258 C 856.17834,318.10952 878.59773,331.28882 865.02344,332.67258 z "
           id="path5155" />
        <path
           style="fill:#52504a"
           d="M 914.21552,326.6514 C 905.41663,317.33391 927.38266,319.63813 914.21552,326.6514 z "
           id="path5137" />
        <path
           style="fill:#52504a"
           d="M 850.18799,299.27051 C 850.32902,289.86749 857.61766,304.50913 850.18799,299.27051 z "
           id="path5107" />
        <path
           style="fill:#52504a"
           d="M 901.49561,295.0387 C 892.02044,290.90202 910.68098,293.29243 901.49561,295.0387 L 901.49561,295.0387 z "
           id="path5095" />
        <path
           style="fill:#52504a"
           d="M 845.36639,292.0524 C 834.63112,281.99512 858.64908,280.69001 862.44734,288.56125 C 857.45293,291.16124 850.33743,288.81043 845.36639,292.0524 z "
           id="path5087" />
      </g>
    </g>
    <g
       id="layer10"
       style="display:inline"
       transform="matrix(0.121372,0,0,0.121378,382.8071,91.80897)">
      <g
         id="g21562"
         transform="matrix(3.090906,0,0,3.090906,-911.8252,-392.5146)">
        <path
           d="M 539.28156,203.28651 C 518.35655,193.90854 497.0363,223.35267 522.67276,233.04398 C 543.37445,242.9701 565.02055,223.93587 545.50988,206.34668 C 543.58011,203.413 539.22509,204.62878 536.51344,204.67058"
           id="path3386"
           style="fill:url(#radialGradient9964);fill-opacity:1;fill-rule:evenodd;stroke:none;stroke-width:1px;stroke-linecap:butt;stroke-linejoin:miter;stroke-opacity:1" />
        <path
           d="M 454.85342,269.02975 C 434.37132,256.62025 407.77067,289.8807 440.70003,290.91618 C 459.11901,294.65466 475.82372,275.11349 450.70121,266.95365"
           id="path3388"
           style="fill:url(#radialGradient9969);fill-opacity:1;fill-rule:evenodd;stroke:none;stroke-width:1px;stroke-linecap:butt;stroke-linejoin:miter;stroke-opacity:1" />
        <path
           d="M 483.22681,231.33046 C 458.82024,236.11775 466.37125,272.75273 488.76308,275.25806 C 513.19817,277.44548 513.30571,239.35944 493.12342,235.46433 C 489.54177,234.74372 486.8041,232.09085 483.22681,231.33046 z "
           id="path4970"
           style="fill:url(#linearGradient9974);fill-opacity:1;fill-rule:evenodd;stroke:none;stroke-width:1px;stroke-linecap:butt;stroke-linejoin:miter;stroke-opacity:1" />
        <path
           d="M 488.76309,275.9501 C 494.27295,275.99424 510.07611,264.10242 492.2369,260.71688 C 483.78814,252.89397 462.02737,267.98922 488.76309,275.9501 z "
           id="path5740"
           style="fill:url(#linearGradient9979);fill-opacity:1;fill-rule:evenodd;stroke:none;stroke-width:1px;stroke-linecap:butt;stroke-linejoin:miter;stroke-opacity:1" />
        <path
           d="M 505.11905,264.75717 C 489.1108,266.03545 473.86572,226.55284 499.06475,238.59084 C 507.90503,243.88443 506.7368,256.191 505.11905,264.75717 z "
           id="path6508"
           style="fill:#4a87bd;fill-opacity:0.5701358;fill-rule:evenodd;stroke:none;stroke-width:1px;stroke-linecap:butt;stroke-linejoin:miter;stroke-opacity:1" />
        <path
           d="M 451.68378,236.17123 C 432.23846,254.30561 412.59231,225.56628 392.37978,222.5703 C 396.88201,208.20678 414.83211,179.55951 431.61478,198.50796 C 440.5751,209.18703 474.11801,222.0436 453.20036,236.24347 L 449.23047,238.53879"
           id="path6512"
           style="fill:url(#linearGradient9985);fill-opacity:1;fill-rule:evenodd;stroke:none;stroke-width:1px;stroke-linecap:butt;stroke-linejoin:miter;stroke-opacity:1" />
        <path
           d="M 536.51343,301.55536 C 521.00973,301.18186 500.15207,285.72655 518.86972,272.78082 C 530.65389,260.13944 547.91491,283.28944 551.86742,292.15278 C 547.49798,298.16135 540.43283,300.5433 533.7453,302.59101"
           id="path6514"
           style="fill:url(#linearGradient9990);fill-opacity:1;fill-rule:evenodd;stroke:none;stroke-width:1px;stroke-linecap:butt;stroke-linejoin:miter;stroke-opacity:1" />
        <path
           d="M 484.61087,233.73602 C 471.06267,228.72429 466.10771,251.08672 470.80455,261.17825 C 474.52074,270.38987 496.13003,251.61242 485.30291,240.65636 L 485.25472,237.15675 L 484.61088,233.73602 L 484.61087,233.73602 z "
           id="path8052"
           style="fill:url(#linearGradient9995);fill-opacity:1;fill-rule:evenodd;stroke:none;stroke-width:1px;stroke-linecap:butt;stroke-linejoin:miter;stroke-opacity:1" />
        <path
           d="M 468.59528,242.62471 C 463.85483,266.7091 492.62379,281.76019 507.0889,269.4098 C 513.45698,249.43414 494.04357,224.93731 474.87485,236.35612 C 456.05199,260.8871 480.44397,216.06117 494.38744,232.92195 C 515.59918,234.49843 519.41335,273.71225 496.05024,274.58298 C 478.44617,285.28942 456.95248,257.33337 467.24068,243.31491 L 468.3625,242.74331 L 468.59528,242.62471 z "
           id="path3249"
           style="fill:black;fill-opacity:1;fill-rule:nonzero;stroke:none;stroke-width:1px;stroke-linecap:butt;stroke-linejoin:miter;stroke-opacity:1" />
        <path
           d="M 465.60233,224.40981 C 466.80812,233.66227 432.39172,256.45339 418.78929,236.7304 C 408.3659,228.34138 379.05829,227.53299 398.55108,211.41253 C 406.63009,194.23948 424.79402,181.26374 439.06263,201.25565 C 445.52092,209.34302 473.07973,219.09314 466.81796,227.29779 C 451.41696,215.0816 432.16588,196.85829 415.78627,193.03213 C 408.3485,204.07511 381.56317,224.89868 409.48742,227.44789 C 425.93711,238.31584 449.04487,251.6935 461.97712,227.76439 C 463.31275,225.09536 472.40615,220.70474 465.60233,224.40981 z "
           id="path3255"
           style="fill:black;fill-opacity:1;fill-rule:nonzero;stroke:none;stroke-width:1px;stroke-linecap:butt;stroke-linejoin:miter;stroke-opacity:1" />
        <path
           d="M 508.04071,289.00311 C 510.14492,268.71579 537.31117,254.40867 547.84048,278.42128 C 575.35792,290.58914 532.07312,311.39602 519.17748,296.89139 C 504.13492,293.31598 507.5247,284.25151 520.44846,293.18881 C 531.85875,308.90051 568.74279,293.13962 543.80315,280.91736 C 531.62286,265.24974 523.90103,262.03862 513.17576,280.3534 C 511.48324,285.31394 514.19493,287.3134 508.04071,289.00311 z "
           id="path3259"
           style="fill:black;fill-opacity:1;fill-rule:nonzero;stroke:none;stroke-width:1px;stroke-linecap:butt;stroke-linejoin:miter;stroke-opacity:1" />
        <path
           d="M 464.79932,275.80237 C 454.3288,260.99718 414.08789,269.29027 429.67362,288.62253 C 442.88656,302.02519 477.08475,284.34538 454.07814,271.66624 C 444.58591,265.58305 478.32224,273.49802 463.69239,286.068 C 455.67274,301.80532 412.69629,297.62055 423.82119,276.49381 C 428.90997,263.25729 473.24444,263.02981 464.79932,275.80237 z "
           id="path3275"
           style="fill:black;fill-opacity:1;fill-rule:nonzero;stroke:none;stroke-width:1px;stroke-linecap:butt;stroke-linejoin:miter;stroke-opacity:1" />
        <path
           d="M 560.13831,226.56453 C 548.24558,242.88648 504.7785,246.48612 508.51482,218.46594 C 514.21736,194.66506 553.65772,196.60979 556.33139,221.15308 C 554.90203,239.45912 526.33256,236.68215 512.56488,240.26669 C 526.15737,237.03989 559.1678,239.13387 550.80683,217.70442 C 543.20405,194.7332 502.33964,202.77558 513.43221,228.4601 C 525.66593,242.42515 547.63521,236.59864 560.13831,226.56453 z "
           id="path3279"
           style="fill:black;fill-opacity:1;fill-rule:nonzero;stroke:none;stroke-width:1px;stroke-linecap:butt;stroke-linejoin:miter;stroke-opacity:1" />
        <path
           d="M 465.48123,248.85265 C 454.72056,245.71252 442.10426,231.65996 460.53323,241.80081 C 464.37931,245.07736 472.53726,243.57119 465.48123,248.85265 z "
           id="path3283"
           style="fill:black;fill-opacity:1;fill-rule:nonzero;stroke:none;stroke-width:1px;stroke-linecap:butt;stroke-linejoin:miter;stroke-opacity:1" />
        <path
           d="M 507.82162,267.06754 C 527.53608,272.46822 510.62453,276.50744 504.55447,269.44127 C 505.64352,268.65002 506.73257,267.85878 507.82162,267.06754 z "
           id="path3285"
           style="fill:black;fill-opacity:1;fill-rule:nonzero;stroke:none;stroke-width:1px;stroke-linecap:butt;stroke-linejoin:miter;stroke-opacity:1" />
        <path
           d="M 469.00513,270.62616 C 455.63706,278.1353 483.81831,259.66893 469.00513,270.62616 z "
           id="path3287"
           style="fill:black;fill-opacity:1;fill-rule:nonzero;stroke:none;stroke-width:1px;stroke-linecap:butt;stroke-linejoin:miter;stroke-opacity:1" />
        <path
           d="M 510.8429,238.51741 C 525.49217,225.93676 504.46881,247.60882 507.36984,241.04072 C 508.52753,240.19962 509.68521,239.35851 510.8429,238.51741 z "
           id="path3289"
           style="fill:black;fill-opacity:1;fill-rule:nonzero;stroke:none;stroke-width:1px;stroke-linecap:butt;stroke-linejoin:miter;stroke-opacity:1" />
        <path
           d="M 471.07394,265.90637 C 477.93143,261.76028 495.85271,249.13939 504.70271,265.82397 C 514.63556,276.1763 492.02901,259.75519 488.17257,257.28489 C 486.86539,258.57945 460.91802,272.79249 471.07394,265.90637 z "
           id="path3297"
           style="fill:black;fill-opacity:1;fill-rule:nonzero;stroke:none;stroke-width:1px;stroke-linecap:butt;stroke-linejoin:miter;stroke-opacity:1" />
        <path
           d="M 488.07104,256.88834 C 484.53102,248.88654 484.23383,213.80381 486.24288,239.6692 C 483.64292,244.02461 496.86557,260.12552 488.07104,256.88834 z "
           id="path3309"
           style="fill:black;fill-opacity:1;fill-rule:nonzero;stroke:none;stroke-width:1px;stroke-linecap:butt;stroke-linejoin:miter;stroke-opacity:1" />
        <path
           d="M 446.54901,280.79434 C 443.44938,286.24432 435.23763,312.00185 440.42446,292.00552 C 441.81439,286.65553 440.19939,282.27064 446.54901,280.79434 z "
           id="path3363"
           style="fill:#72610c;fill-opacity:1;fill-rule:nonzero;stroke:none;stroke-width:1px;stroke-linecap:butt;stroke-linejoin:miter;stroke-opacity:1" />
        <path
           d="M 535.74518,219.39265 C 533.39271,227.86344 524.7626,258.59944 529.81983,233.69125 C 531.26962,226.84968 526.89412,221.24513 535.74518,219.39265 z "
           id="path3365"
           style="fill:#72610c;fill-opacity:1;fill-rule:nonzero;stroke:none;stroke-width:1px;stroke-linecap:butt;stroke-linejoin:miter;stroke-opacity:1" />
        <path
           d="M 448.73019,238.93056 C 428.17679,246.01676 419.21008,209.48835 401.5694,210.35634 C 420.75324,209.46642 437.14223,245.17316 448.73019,238.93056 z "
           id="path3373"
           style="fill:black;fill-opacity:0.48868779;fill-rule:nonzero;stroke:none;stroke-width:1px;stroke-linecap:butt;stroke-linejoin:miter;stroke-opacity:1" />
        <path
           d="M 408.44467,200.45001 C 428.88786,204.9933 442.11949,222.95406 454.10434,238.65275 C 449.62897,241.61407 437.0969,215.19869 425.98614,210.86429 C 423.45595,205.79024 403.73931,202.48306 408.44467,200.45001 z "
           id="path3375"
           style="fill:black;fill-opacity:0.48868779;fill-rule:nonzero;stroke:none;stroke-width:1px;stroke-linecap:butt;stroke-linejoin:miter;stroke-opacity:1" />
        <path
           d="M 542.28448,298.23642 C 530.44886,297.87712 519.93853,283.87339 513.57727,278.90808 C 522.61089,284.07452 535.29767,298.60658 542.28448,298.23642 z "
           id="path3381"
           style="fill:black;fill-opacity:0.32126698;fill-rule:nonzero;stroke:none;stroke-width:1px;stroke-linecap:butt;stroke-linejoin:miter;stroke-opacity:1" />
        <path
           d="M 520.43872,270.60556 C 530.81292,277.04333 542.67807,288.95142 547.38574,297.01855 C 539.57166,288.25779 526.93161,276.09044 520.43872,270.60556 z "
           id="path3383"
           style="fill:black;fill-opacity:0.32126698;fill-rule:nonzero;stroke:none;stroke-width:1px;stroke-linecap:butt;stroke-linejoin:miter;stroke-opacity:1" />
      </g>
    </g>
    <path
       sodipodi:type="arc"
       style="fill:#93cbf5;fill-opacity:1;stroke:none;stroke-width:0.42500001;stroke-miterlimit:4;stroke-dasharray:5.1, 0.425;stroke-dashoffset:0;stroke-opacity:1"
       id="path6219"
       sodipodi:cx="-279.22485"
       sodipodi:cy="38.331554"
       sodipodi:rx="32.808922"
       sodipodi:ry="32.808922"
       d="M -246.41593 38.331554 A 32.808922 32.808922 0 1 1  -312.03378,38.331554 A 32.808922 32.808922 0 1 1  -246.41593 38.331554 z"
       transform="matrix(2.476474,0,0,2.476606,1003.702,287.1956)" />
    <path
       d="M 239.17037,396.67294 C 232.54198,377.29193 237.15297,368.71832 239.58773,349.90282 C 244.01018,327.08807 262.76605,317.65384 276.47281,309.51433 C 292.9782,301.32751 309.83699,299.84602 332.23505,303.07106 C 345.89406,308.07444 356.55943,313.33839 353.30903,320.41792 C 344.41219,311.54295 339.37328,323.17581 332.80555,326.80736 C 316.39955,312.79463 318.99287,359.22351 301.70577,351.48137 C 284.21884,349.03469 274.53753,370.70317 263.39136,383.8075 C 254.14658,390.43517 243.0606,390.76006 232.82741,391.83432"
       id="path9676"
       style="color:black;fill:url(#linearGradient6264);fill-opacity:1;fill-rule:evenodd;stroke:none;stroke-width:4.7235918;stroke-linecap:round;stroke-linejoin:miter;marker:none;marker-start:none;marker-mid:none;marker-end:none;stroke-miterlimit:4;stroke-dashoffset:0;stroke-opacity:1;visibility:visible;display:inline;overflow:visible"
       sodipodi:nodetypes="ccccccccc" />
    <path
       d="M 389.79618,382.4497 C 392.11572,403.85778 388.08788,420.52997 369.76632,438.51234 C 352.60791,457.41669 330.4841,464.45577 309.49502,462.9946 C 296.69984,462.3306 276.5488,452.26579 286.27829,441.41231 C 297.21392,445.75607 308.33199,443.29647 311.12315,431.0702 C 321.34659,434.73191 333.93468,440.04259 333.85378,422.0863 C 339.94419,419.67879 353.01101,430.79402 350.8226,415.64523 C 375.02867,419.65002 373.26918,392.48823 389.79618,382.4497 z "
       id="path9678"
       style="color:black;fill:url(#linearGradient6261);fill-opacity:1;fill-rule:evenodd;stroke:none;stroke-width:4.7235918;stroke-linecap:round;stroke-linejoin:miter;marker:none;marker-start:none;marker-mid:none;marker-end:none;stroke-miterlimit:4;stroke-dashoffset:0;stroke-opacity:1;visibility:visible;display:inline;overflow:visible"
       sodipodi:nodetypes="cccccccc" />
    <path
       d="M 291.09917,455.49904 C 296.87346,430.75221 271.86527,411.92305 277.73395,387.13218 C 283.71076,366.89021 275.02388,342.64589 256.17677,338.70972 C 229.5742,331.05445 241.08832,372.86351 250.53622,385.59902 C 267.94735,400.15195 254.62848,428.83161 269.76619,443.90347 C 273.41043,450.98909 303.93133,460.05161 296.52586,456.90509 C 294.76419,456.23613 292.95683,455.66758 291.09917,455.49904 z "
       id="path9680"
       style="color:black;fill:url(#linearGradient6258);fill-opacity:1;fill-rule:evenodd;stroke:none;stroke-width:4.7235918;stroke-linecap:round;stroke-linejoin:miter;marker:none;marker-start:none;marker-mid:none;marker-end:none;stroke-miterlimit:4;stroke-dashoffset:0;stroke-opacity:1;visibility:visible;display:inline;overflow:visible"
       sodipodi:nodetypes="ccccccc" />
    <path
       d="M 364.93916,320.31577 C 355.49439,333.33754 334.69138,315.55811 330.17589,336.96494 C 338.94986,347.39754 335.54378,352.00271 325.50287,354.19087 C 331.15158,365.12913 326.88044,370.52576 319.59623,375.97205 C 329.1771,389.40437 329.76854,356.34515 341.00224,370.90168 C 347.21894,376.331 341.81666,350.9146 353.07617,360.78089 C 366.74241,377.01295 352.48077,391.09657 337.2785,385.28552 C 317.64945,390.29954 328.10044,424.92994 343.56855,430.33548 C 352.36287,435.96365 361.30385,449.26323 363.32772,430.23004 C 371.35356,410.57218 355.03982,389.24961 366.45488,371.14336 C 379.18473,353.37071 369.4115,384.51601 375.58889,391.06983 C 389.8811,404.07625 385.14337,369.59913 380.64862,361.90708 C 373.0308,349.29128 374.31539,324.87016 360.55261,319.47612"
       id="path9682"
       style="color:black;fill:url(#linearGradient6255);fill-opacity:1;fill-rule:evenodd;stroke:none;stroke-width:4.7235918;stroke-linecap:round;stroke-linejoin:miter;marker:none;marker-start:none;marker-mid:none;marker-end:none;stroke-miterlimit:4;stroke-dashoffset:0;stroke-opacity:1;visibility:visible;display:inline;overflow:visible" />
    <path
       d="M 288.90592,378.48285 C 301.75898,366.85648 283.49231,350.60259 272.9077,363.50231 C 261.32393,368.45366 261.94494,377.35581 248.00245,378.49311 C 230.09624,386.63498 269.01161,370.44771 254.19355,388.39872 C 246.98661,396.30116 268.99662,387.58603 272.83069,386.75079 C 278.23639,385.43032 287.68701,387.01891 288.90592,378.48285 z "
       id="path9712"
       style="color:black;fill:url(#linearGradient6252);fill-opacity:1;fill-rule:evenodd;stroke:none;stroke-width:4.7235918;stroke-linecap:round;stroke-linejoin:miter;marker:none;marker-start:none;marker-mid:none;marker-end:none;stroke-miterlimit:4;stroke-dashoffset:0;stroke-opacity:1;visibility:visible;display:inline;overflow:visible" />
    <path
       d="M 340.08214,441.22503 C 327.06175,449.75723 304.67974,431.79868 299.2051,449.68326 C 287.15522,453.04607 285.20943,433.85479 288.79068,430.00871 C 281.60184,413.18445 317.63832,414.13266 317.12475,416.05924 C 303.84875,438.76026 333.30083,403.68656 331.59834,415.23829 C 325.85897,421.7312 337.62002,415.2187 328.48936,424.08 C 332.15751,427.90621 354.54383,418.91302 354.66689,431.75444 C 364.05303,431.19146 341.31528,445.19865 340.08214,441.22503 z "
       id="path9714"
       style="color:black;fill:url(#linearGradient6249);fill-opacity:1;fill-rule:evenodd;stroke:none;stroke-width:4.7235918;stroke-linecap:round;stroke-linejoin:miter;marker:none;marker-start:none;marker-mid:none;marker-end:none;stroke-miterlimit:4;stroke-dashoffset:0;stroke-opacity:1;visibility:visible;display:inline;overflow:visible" />
    <path
       d="M 265.51108,343.82592 C 270.56764,326.7132 282.8899,315.13307 298.11088,312.54529 C 303.84019,308.83875 326.42141,311.04879 309.90933,317.69323 C 296.74007,327.46532 271.03968,327.46776 265.51108,343.82592 L 265.51108,343.82592 z "
       id="path9716"
       style="color:black;fill:url(#linearGradient6246);fill-opacity:1;fill-rule:evenodd;stroke:none;stroke-width:4.7235918;stroke-linecap:round;stroke-linejoin:miter;marker:none;marker-start:none;marker-mid:none;marker-end:none;stroke-miterlimit:4;stroke-dashoffset:0;stroke-opacity:1;visibility:visible;display:inline;overflow:visible" />
    <path
       id="path2764"
       style="fill:none;fill-rule:evenodd;stroke:black;stroke-width:0.84128261;stroke-linecap:butt;stroke-linejoin:miter;stroke-miterlimit:4;stroke-dasharray:10.09539129, 0.84128263;stroke-dashoffset:0;stroke-opacity:1"
       d="M 595.08969,382.36095 L 455.12201,138.72832 L 313.90771,382.14342 L 595.08969,382.36095 z "
       sodipodi:nodetypes="cccc" />
    <path
       sodipodi:type="arc"
       style="fill:green;fill-opacity:1;stroke:none;stroke-width:0.25;stroke-miterlimit:4;stroke-dasharray:3, 0.25;stroke-dashoffset:0"
       id="path2778"
       sodipodi:cx="537.85693"
       sodipodi:cy="409.69986"
       sodipodi:rx="1.8537334"
       sodipodi:ry="1.8537334"
       d="M 539.71067 409.69986 A 1.8537334 1.8537334 0 1 1  536.0032,409.69986 A 1.8537334 1.8537334 0 1 1  539.71067 409.69986 z"
       transform="matrix(1.922167,0,0,1.922269,-672.5499,-405.392)" />
    <g
       id="g2112">
      <path
         style="fill:red;fill-opacity:1;fill-rule:evenodd;stroke:none;stroke-width:1.26192391;stroke-linecap:butt;stroke-linejoin:miter;stroke-miterlimit:4;stroke-dasharray:none;stroke-opacity:1"
         d="M 313.90625,381.5 L 313.90625,382.78125 L 359.8125,382.8125 L 359.8125,381.5625 L 313.90625,381.5 z "
         id="path2786" />
      <path
         d="M 346.3378,376.56921 L 361.49987,382.158 L 346.32918,387.72333 C 348.75468,384.43251 348.7442,379.92752 346.3378,376.56921 z "
         style="font-size:12px;fill:red;fill-rule:evenodd;stroke-width:0.625;stroke-linejoin:round"
         id="path2118" />
    </g>
    <g
       id="g2104">
      <path
         style="fill:red;fill-opacity:1;fill-rule:evenodd;stroke:none;stroke-width:1.26192391;stroke-linecap:butt;stroke-linejoin:miter;stroke-miterlimit:4;stroke-dasharray:none;stroke-opacity:1"
         d="M 363.34375,381.5625 L 363.34375,382.8125 L 595.09375,383 L 595.09375,381.71875 L 363.34375,381.5625 z "
         id="path3059" />
      <path
         d="M 376.83076,387.79133 L 361.6687,382.20253 L 376.8394,376.63721 C 374.41389,379.92803 374.42437,384.43302 376.83076,387.79133 z "
         style="font-size:12px;fill:red;fill-rule:evenodd;stroke-width:0.625;stroke-linejoin:round"
         id="path2110" />
    </g>
    <g
       id="g2056">
      <path
         style="fill:red;fill-opacity:1;fill-rule:evenodd;stroke:none;stroke-width:1.26192391;stroke-linecap:butt;stroke-linejoin:miter;stroke-miterlimit:4;stroke-dasharray:none;stroke-opacity:1"
         d="M 455.65625,138.40625 L 454.5625,139.03125 L 478.375,180.46875 L 479.46875,179.84375 L 455.65625,138.40625 z "
         id="path3061" />
      <path
         d="M 477.06397,165.68097 L 479.78324,181.60983 L 467.39231,171.23738 C 471.45437,171.69805 475.35365,169.4418 477.06397,165.68097 z "
         style="font-size:12px;fill:red;fill-rule:evenodd;stroke-width:0.625;stroke-linejoin:round"
         id="path2062" />
    </g>
    <g
       id="g2072">
      <path
         style="fill:red;fill-opacity:1;fill-rule:evenodd;stroke:none;stroke-width:1.26192391;stroke-linecap:butt;stroke-linejoin:miter;stroke-miterlimit:4;stroke-dasharray:none;stroke-opacity:1"
         d="M 454.5625,138.40625 L 337.46875,340.28125 L 338.5625,340.90625 L 455.65625,139.03125 L 454.5625,138.40625 z "
         id="path3063" />
      <path
         d="M 349.62665,331.73176 L 337.192,342.05176 L 339.97856,326.13453 C 341.61082,329.88264 345.51454,332.13119 349.62665,331.73176 z "
         style="font-size:12px;fill:red;fill-rule:evenodd;stroke-width:0.625;stroke-linejoin:round"
         id="path2078" />
    </g>
    <path
       inkscape:transform-center-y="21.897736"
       inkscape:transform-center-x="-12.733768"
       style="fill:red;fill-rule:evenodd;stroke:red;stroke-width:1.26192391;stroke-linecap:butt;stroke-linejoin:miter;marker-end:none;stroke-miterlimit:4;stroke-dasharray:7.57154346, 2.52384782;stroke-dashoffset:0;stroke-opacity:1"
       d="M 337.10588,342.15588 L 361.29698,381.95082"
       id="path3065"
       sodipodi:nodetypes="cc" />
    <path
       id="path3067"
       d="M 479.8477,181.76668 L 361.30113,382.1617"
       style="fill:red;fill-rule:evenodd;stroke:red;stroke-width:1.26192391;stroke-linecap:butt;stroke-linejoin:miter;marker-end:none;stroke-miterlimit:4;stroke-dasharray:7.57154346, 2.52384782;stroke-dashoffset:0;stroke-opacity:1"
       inkscape:transform-center-x="-12.733754"
       inkscape:transform-center-y="21.897708"
       sodipodi:nodetypes="cc" />
    <g
       id="g2088">
      <path
         style="fill:red;fill-opacity:1;fill-rule:evenodd;stroke:none;stroke-width:1.26192391;stroke-linecap:butt;stroke-linejoin:miter;stroke-miterlimit:4;stroke-dasharray:none;stroke-opacity:1"
         d="M 454.53125,138.5 L 361.875,379.875 L 363.03125,380.3125 L 455.71875,138.96875 L 454.53125,138.5 z "
         id="path3069" />
      <path
         d="M 372.5171,369.50726 L 361.87463,381.66706 L 362.10405,365.50939 C 364.30954,368.95153 368.52022,370.55318 372.5171,369.50726 z "
         style="font-size:12px;fill:red;fill-rule:evenodd;stroke-width:0.625;stroke-linejoin:round"
         id="path2094" />
    </g>
    <text
       xml:space="preserve"
       style="font-size:28.31792259px;font-style:normal;font-variant:normal;font-weight:normal;font-stretch:normal;text-align:start;line-height:125%;writing-mode:lr-tb;text-anchor:start;fill:black;fill-opacity:1;stroke:none;stroke-width:1px;stroke-linecap:butt;stroke-linejoin:miter;stroke-opacity:1;font-family:Bitstream Vera Sans"
       x="490.20761"
       y="146.90248"
       id="text3083"
       sodipodi:linespacing="125%"
       transform="scale(0.999974,1.000026)"><tspan
         sodipodi:role="line"
         id="tspan3087"
         x="490.20761"
         y="146.90248">L</tspan></text>
    <text
       sodipodi:linespacing="125%"
       id="text3089"
       y="410.09164"
       x="363.78418"
       style="font-size:28.31792259px;font-style:normal;font-variant:normal;font-weight:normal;font-stretch:normal;text-align:start;line-height:125%;writing-mode:lr-tb;text-anchor:start;fill:black;fill-opacity:1;stroke:none;stroke-width:1px;stroke-linecap:butt;stroke-linejoin:miter;stroke-opacity:1;font-family:Bitstream Vera Sans"
       xml:space="preserve"
       transform="scale(0.999974,1.000026)"><tspan
         sodipodi:role="line"
         id="tspan3093"
         x="363.78418"
         y="410.09164">b</tspan></text>
    <text
       xml:space="preserve"
       style="font-size:28.31792259px;font-style:normal;font-weight:normal;fill:black;fill-opacity:1;stroke:none;stroke-width:1px;stroke-linecap:butt;stroke-linejoin:miter;stroke-opacity:1;font-family:Bitstream Vera Sans"
       x="268.98224"
       y="293.34644"
       id="text3095"
       transform="scale(0.999974,1.000026)"><tspan
         sodipodi:role="line"
         id="tspan3097"
         x="268.98224"
         y="293.34644">E</tspan></text>
    <text
       xml:space="preserve"
       style="font-size:28.31792259px;font-style:normal;font-weight:normal;fill:black;fill-opacity:1;stroke:none;stroke-width:1px;stroke-linecap:butt;stroke-linejoin:miter;stroke-opacity:1;font-family:Bitstream Vera Sans"
       x="553.81934"
       y="426.89423"
       id="text3099"
       transform="scale(0.999974,1.000026)"><tspan
         sodipodi:role="line"
         id="tspan3101"
         x="553.81934"
         y="426.89423">M</tspan></text>
    <g
       id="g2120">
      <path
         style="fill:red;fill-opacity:1;fill-rule:evenodd;stroke:none;stroke-width:1.26192391;stroke-linecap:butt;stroke-linejoin:miter;stroke-miterlimit:4;stroke-dasharray:none;stroke-opacity:1"
         d="M 344.8125,381.40625 L 313.90625,381.5 L 313.90625,382.78125 L 344.8125,382.65625 L 344.8125,381.40625 z "
         id="path11683" />
      <path
         d="M 331.29083,376.48356 L 346.47655,382.00779 L 331.32967,387.63763 C 333.74115,384.33651 333.7115,379.83161 331.29083,376.48356 z "
         style="font-size:12px;fill:red;fill-rule:evenodd;stroke-width:0.625;stroke-linejoin:round"
         id="path2126" />
    </g>
    <g
       id="g2096">
      <path
         style="fill:red;fill-opacity:1;fill-rule:evenodd;stroke:none;stroke-width:1.26192391;stroke-linecap:butt;stroke-linejoin:miter;stroke-miterlimit:4;stroke-dasharray:none;stroke-opacity:1"
         d="M 376.65625,381.5625 L 376.65625,382.8125 L 595.09375,383 L 595.09375,381.71875 L 376.65625,381.5625 z "
         id="path11685" />
      <path
         d="M 390.13677,387.79197 L 374.97496,382.20245 L 390.14593,376.63784 C 387.72027,379.92855 387.73053,384.43354 390.13677,387.79197 z "
         style="font-size:12px;fill:red;fill-rule:evenodd;stroke-width:0.625;stroke-linejoin:round"
         id="path2102" />
    </g>
    <g
       id="g2080">
      <path
         style="fill:red;fill-opacity:1;fill-rule:evenodd;stroke:none;stroke-width:1.26192391;stroke-linecap:butt;stroke-linejoin:miter;stroke-miterlimit:4;stroke-dasharray:none;stroke-opacity:1"
         d="M 454.53125,138.5 L 366.4375,367.40625 L 367.625,367.875 L 455.71875,138.96875 L 454.53125,138.5 z "
         id="path11687" />
      <path
         d="M 377.10369,357.06649 L 366.45193,369.21815 L 366.6937,353.06066 C 368.89656,356.50449 373.10601,358.10935 377.10369,357.06649 z "
         style="font-size:12px;fill:red;fill-rule:evenodd;stroke-width:0.625;stroke-linejoin:round"
         id="path2086" />
    </g>
    <g
       id="g2064">
      <path
         style="fill:red;fill-opacity:1;fill-rule:evenodd;stroke:none;stroke-width:1.26192391;stroke-linecap:butt;stroke-linejoin:miter;stroke-miterlimit:4;stroke-dasharray:none;stroke-opacity:1"
         d="M 454.5625,138.40625 L 344.0625,328.96875 L 345.15625,329.59375 L 455.65625,139.03125 L 454.5625,138.40625 z "
         id="path11689" />
      <path
         d="M 356.20742,320.42689 L 343.77374,330.74805 L 346.55881,314.83057 C 348.19142,318.57852 352.09535,320.82671 356.20742,320.42689 z "
         style="font-size:12px;fill:red;fill-rule:evenodd;stroke-width:0.625;stroke-linejoin:round"
         id="path2070" />
    </g>
    <g
       id="g2048">
      <path
         style="fill:red;fill-opacity:1;fill-rule:evenodd;stroke:none;stroke-width:1.26192391;stroke-linecap:butt;stroke-linejoin:miter;stroke-miterlimit:4;stroke-opacity:1"
         d="M 455.65625,138.40625 L 454.5625,139.03125 L 471.8125,168.90625 L 472.90625,168.25 L 455.65625,138.40625 z "
         id="path11691" />
      <path
         d="M 470.45435,154.09465 L 473.20443,170.01822 L 460.79346,159.66975 C 464.8564,160.12257 468.75131,157.85878 470.45435,154.09465 z "
         style="font-size:12px;fill:red;fill-rule:evenodd;stroke-width:0.625;stroke-linejoin:round"
         id="path2054" />
    </g>
    <path
       transform="matrix(25.62873,0,0,25.63009,-13423.29,-10118.48)"
       d="M 539.71067 409.69986 A 1.8537334 1.8537334 0 1 1  536.0032,409.69986 A 1.8537334 1.8537334 0 1 1  539.71067 409.69986 z"
       sodipodi:ry="1.8537334"
       sodipodi:rx="1.8537334"
       sodipodi:cy="409.69986"
       sodipodi:cx="537.85693"
       id="path11693"
       style="fill:none;fill-opacity:1;stroke:green;stroke-width:0.03218959;stroke-miterlimit:4;stroke-dasharray:0.38627499, 0.03218957;stroke-dashoffset:0;stroke-opacity:1"
       sodipodi:type="arc" />
    <path
       sodipodi:type="arc"
       style="fill:none;fill-opacity:1;stroke:green;stroke-width:0.0065518;stroke-miterlimit:4;stroke-dasharray:0.07862165, 0.0065518;stroke-dashoffset:0;stroke-opacity:1"
       id="path11695"
       sodipodi:cx="537.85693"
       sodipodi:cy="409.69986"
       sodipodi:rx="1.8537334"
       sodipodi:ry="1.8537334"
       d="M 536.79849,408.17801 A 1.8537334,1.8537334 0 0 1 539.59943,410.33234"
       transform="matrix(125.9162,0,0,125.9229,-67363.6,-51208.42)"
       sodipodi:start="4.1046899"
       sodipodi:end="6.6313683"
       sodipodi:open="true" />
    <path
       transform="matrix(7.607305e13,0,0,7.607305e13,-4.091642e16,-3.116712e16)"
       d="M 539.71067 409.69986 A 1.8537334 1.8537334 0 1 1  536.0032,409.69986 A 1.8537334 1.8537334 0 1 1  539.71067 409.69986 z"
       sodipodi:ry="1.8537334"
       sodipodi:rx="1.8537334"
       sodipodi:cy="409.69986"
       sodipodi:cx="537.85693"
       id="path11697"
       style="fill:none;fill-opacity:1;stroke:green;stroke-width:0;stroke-miterlimit:4;stroke-dasharray:none;stroke-dashoffset:0;stroke-opacity:1"
       sodipodi:type="arc" />
    <path
       transform="matrix(7.607305e13,0,0,7.607305e13,-4.091642e16,-3.116712e16)"
       d="M 539.71067 409.69986 A 1.8537334 1.8537334 0 1 1  536.0032,409.69986 A 1.8537334 1.8537334 0 1 1  539.71067 409.69986 z"
       sodipodi:ry="1.8537334"
       sodipodi:rx="1.8537334"
       sodipodi:cy="409.69986"
       sodipodi:cx="537.85693"
       id="path11700"
       style="fill:none;fill-opacity:1;stroke:green;stroke-width:0;stroke-miterlimit:4;stroke-dasharray:none;stroke-dashoffset:0;stroke-opacity:1"
       sodipodi:type="arc" />
    <path
       transform="matrix(7.607305e13,0,0,7.607305e13,-4.091642e16,-3.116712e16)"
       d="M 539.71067 409.69986 A 1.8537334 1.8537334 0 1 1  536.0032,409.69986 A 1.8537334 1.8537334 0 1 1  539.71067 409.69986 z"
       sodipodi:ry="1.8537334"
       sodipodi:rx="1.8537334"
       sodipodi:cy="409.69986"
       sodipodi:cx="537.85693"
       id="path11702"
       style="fill:none;fill-opacity:1;stroke:green;stroke-width:0;stroke-miterlimit:4;stroke-dasharray:none;stroke-dashoffset:0;stroke-opacity:1"
       sodipodi:type="arc" />
    <path
       transform="matrix(140.8104,0,0,140.8179,-75374.53,-57310.89)"
       d="M 536.91987,408.10041 A 1.8537334,1.8537334 0 0 1 539.62079,410.27006"
       sodipodi:ry="1.8537334"
       sodipodi:rx="1.8537334"
       sodipodi:cy="409.69986"
       sodipodi:cx="537.85693"
       id="path11704"
       style="fill:none;fill-opacity:1;stroke:green;stroke-width:0.00585878;stroke-miterlimit:4;stroke-dasharray:0.07030547, 0.00585878;stroke-dashoffset:0;stroke-opacity:1"
       sodipodi:type="arc"
       sodipodi:start="4.1824274"
       sodipodi:end="6.5958516"
       sodipodi:open="true" />
    <text
       xml:space="preserve"
       style="font-size:18.98303986px;font-style:normal;font-weight:normal;fill:black;fill-opacity:1;stroke:none;stroke-width:1px;stroke-linecap:butt;stroke-linejoin:miter;stroke-opacity:1;font-family:Bitstream Vera Sans"
       x="505.97263"
       y="154.80739"
       id="text2045"><tspan
         sodipodi:role="line"
         id="tspan2047"
         x="505.97263"
         y="154.80739">4</tspan></text>
  </g>
</svg>
