<?xml version="1.0" encoding="UTF-8" standalone="no"?>
<svg xmlns:svg="http://www.w3.org/2000/svg" xmlns="http://www.w3.org/2000/svg" version="1.0" width="500" height="400" viewBox="-250 -200 500 400" id="svg2">
  <defs/>
  <g style="fill-rule:evenodd; stroke-dasharray:none; stroke-dashoffset:0; stroke-linejoin:miter; stroke-miterlimit:4; stroke-opacity:1;stroke-linecap:butt; fill-opacity:1;">
    <rect width="500" height="400" x="-250" y="-200" style="fill:#ffffff; stroke:none;" id="background"/>
    <circle cx="0" cy="0" r="180" style="fill:none; stroke:#000000; stroke-width:2; stroke-dasharray:1.5, 5;" id="orbit"/>
    
    <path d="M 179,0 A 179 179 0 0 0 168.2 -61.2 L 166.4,-54.1 L 166.9,-67.4 L 175.9,-57.2 L 170.1,-61.9 A 181 181 0 0 1 181,0 z" style="fill:#000000; fill-rule:nonzero; stroke:#000000;" id="arrow"/>

    <line x1="0" y1="0" x2="90" y2="-155.9" style="fill:none; stroke:#000000; stroke-width:1.5; stroke-dasharray:6, 3;"/>
    <line x1="0" y1="0" x2="90" y2="155.9" style="fill:none; stroke:#000000; stroke-width:1.5; stroke-dasharray:6, 3;"/>
    <line x1="-220" y1="0" x2="220" y2="0" style="fill:none; stroke:#000000; stroke-width:1.5; stroke-dasharray:6, 3;"/>
    <circle r="8" cx="180" cy="0" style="fill:#9999FF; fill-opacity:1; stroke:none;" id="earth"/>
    <circle r="4" cx="165" cy="0" style="fill:#FF0000; stroke:none;" id="L1"/>
    <circle r="4" cx="195" cy="0" style="fill:#FF0000; stroke:none;" id="L2"/>
    <circle r="4" cx="-185" cy="0" style="fill:#FF0000; stroke:none;" id="L3"/>
    <circle r="4" cx="90" cy="-155.9" style="fill:#FF0000; stroke:none;" id="L4"/>
    <circle r="4" cx="90" cy="155.9" style="fill:#FF0000; stroke:none;" id="L5"/>
    <path d="M 25,-43.3 A 50 50 0 0 1 25,43.3" style="fill:none; stroke:#000000; stroke-width:1;" id="anglearcs"/>
    <circle cx="0" cy="0" r="18" style="fill:#ffff00; fill-opacity:0.70; stroke:#000000; stroke-width:1;" id="sun"/>
    <g style="font-size:32px; font-style:normal; font-weight:normal; fill:#000000; stroke:none; font-family:Arial,sans-serif;">
      <text transform="translate(50,-20)" x="0" y="0" xml:space="preserve"><tspan x="0" y="0" id="tspan3040">60°</tspan></text>
      <text transform="translate(50,40)" x="0" y="0" xml:space="preserve"><tspan x="0" y="0" id="tspan3044">60°</tspan></text>
      <text transform="translate(145,30)" x="0" y="0" xml:space="preserve"><tspan style="font-size:32px;" x="0" y="0">L</tspan><tspan x="15" y="6">1</tspan></text>
      <text transform="translate(185,30)" x="0" y="0" xml:space="preserve"><tspan style="font-size:32px;" x="0" y="0">L</tspan><tspan x="15" y="6">2</tspan></text>
      <text transform="translate(-212,30)" x="0" y="0" xml:space="preserve"><tspan style="font-size:32px;" x="0" y="0">L</tspan><tspan x="15" y="6">3</tspan></text>
      <text transform="translate(100,-155)" x="0" y="0" xml:space="preserve"><tspan style="font-size:32px;" x="0" y="0">L</tspan><tspan x="15" y="6">4</tspan></text>
      <text transform="translate(100,175)" x="0" y="0" xml:space="preserve"><tspan style="font-size:32px;" x="0" y="0">L</tspan><tspan x="15" y="6">5</tspan></text>
    </g>
  </g>
</svg>